<svg width="630" height="631" viewBox="0 0 630 631" fill="none" xmlns="http://www.w3.org/2000/svg">
<g clip-path="url(#clip0_0_444)">
<g opacity="0.75">
<path d="M462.184 525.032L461.017 525.872C460.25 526.396 459.17 527.235 457.689 528.162L452.463 531.554C450.425 532.883 448.125 534.369 445.494 535.82C432.941 543.299 419.747 549.636 406.07 554.757C392.403 559.881 378.329 563.835 363.998 566.576L356.001 568.01C353.597 568.395 351.506 568.605 349.782 568.832L344.346 569.531" stroke="#FDAE27" stroke-width="0.52" stroke-miterlimit="10"/>
<path d="M242.554 557.642C242.554 557.642 241.683 557.432 240.097 556.872L233.233 554.547C230.237 553.603 226.735 552.169 222.676 550.578C218.617 548.986 214.157 546.941 209.279 544.738C198.229 539.542 187.573 533.54 177.398 526.781C165.75 519.004 154.75 510.291 144.507 500.728C125.32 482.786 109.023 461.964 96.1973 439.006C94.821 436.698 93.6712 434.39 92.5562 432.205C91.4413 430.019 90.396 427.956 89.403 426.015C87.5389 422.081 86.0233 418.584 84.7167 415.734C83.4101 412.884 82.6261 410.488 81.9815 408.985L81.0408 406.589" stroke="#FDAE27" stroke-width="0.52" stroke-miterlimit="10"/>
<path d="M374.45 547.168L369.032 548.427C367.29 548.777 365.234 549.389 362.813 549.791L354.66 551.242C325.312 555.939 295.353 555.175 266.281 548.987L258.233 547.116C255.829 546.574 253.79 545.892 252.083 545.367L246.735 543.846" stroke="#FDAE27" stroke-width="0.52" stroke-miterlimit="10"/>
<path d="M520.894 437.765L519.831 439.513L516.626 444.601C515.249 446.77 513.594 449.41 511.399 452.295C509.204 455.18 507.061 458.554 504.291 461.964L500.128 467.332L495.319 472.892L492.811 475.795L490.128 478.662L484.536 484.519C476.354 492.587 467.666 500.121 458.526 507.075C449.279 513.888 439.602 520.091 429.554 525.644C424.641 528.109 420.007 530.697 415.373 532.638C413.073 533.67 410.861 534.701 408.683 535.645L402.307 538.163C398.265 539.912 394.398 541.048 391.035 542.22C387.673 543.391 384.677 544.248 382.203 544.947L376.489 546.574C375.165 546.941 374.45 547.081 374.45 547.081" stroke="#FDAE27" stroke-width="0.52" stroke-miterlimit="10"/>
<path d="M552.531 448.78C552.531 448.78 550.876 451.683 547.949 456.736L542.27 465.583C540.092 469.08 537.322 472.682 534.465 476.791C533.036 478.854 531.347 480.848 529.709 482.998C528.071 485.149 526.382 487.352 524.483 489.52C520.72 493.856 516.852 498.525 512.462 502.984C508.072 507.442 503.49 511.988 498.751 516.534C494.013 521.08 488.839 525.277 483.525 529.351C478.212 533.425 472.846 537.341 467.498 541.136C462.149 544.93 456.592 548.287 451.104 551.312C445.616 554.337 440.303 557.187 435.216 559.827C432.672 561.121 429.989 562.205 427.638 563.324C425.286 564.443 422.829 565.562 420.495 566.471C415.843 568.22 411.61 570.091 407.777 571.42L397.795 574.794C395.025 575.686 392.795 576.263 391.297 576.7L388.997 577.364" stroke="#FDAE27" stroke-width="0.52" stroke-miterlimit="10"/>
<path d="M263.947 538.233L261.978 537.779L259.627 537.237L256.473 536.345C254.121 535.646 251.247 534.876 247.972 533.88C244.696 532.883 241.003 531.589 237.118 530.138C198.337 515.641 164.195 490.867 138.322 458.45C135.726 455.127 133.305 452.12 131.354 449.27C129.402 446.42 127.556 444.024 126.284 441.979L122.12 435.457" stroke="#FDAE27" stroke-width="0.52" stroke-miterlimit="10"/>
<path d="M369.642 582.103L363.405 583.222C361.419 583.554 359.033 584.061 356.245 584.429L346.907 585.618C330.129 587.454 313.22 587.77 296.386 586.562C279.557 585.312 262.879 582.515 246.561 578.204L237.484 575.616C234.784 574.882 232.502 573.99 230.516 573.378L224.523 571.332" stroke="#FDAE27" stroke-width="0.52" stroke-miterlimit="10"/>
<path d="M405.721 518.738C405.721 518.738 398.892 521.92 388.3 525.592C375.279 530.087 361.862 533.336 348.231 535.296C334.568 537.267 320.751 537.958 306.96 537.359C304.121 537.359 301.56 536.992 299.277 536.87C296.995 536.747 294.992 536.572 293.354 536.397L288.232 535.733" stroke="#FDAE27" stroke-width="0.52" stroke-miterlimit="10"/>
<path d="M105.1 509.628C105.1 509.628 113.235 510.45 121.04 510.887C128.845 511.324 136.719 511.149 136.719 511.149L137.346 511.744C137.747 512.146 138.357 512.705 139.089 513.492L145.726 519.262C147.085 520.486 148.618 521.727 150.273 523.004L155.499 527.078C157.242 528.512 159.175 529.875 161.127 531.274L167.032 535.471C171.057 538.216 175.186 540.716 179.018 543.251L189.802 549.476L200.586 555.036L201.004 556.155C201.283 556.855 201.683 557.904 202.154 559.058C203.129 561.453 204.453 564.67 205.864 567.905L207.972 572.679L209.941 576.753L211.927 580.739L215.917 582.313C218.443 583.379 222.153 584.568 226.578 586.09C248.275 593.429 270.802 598.016 293.633 599.745C298.302 600.077 302.169 600.427 304.905 600.445L309.173 600.55" stroke="#FDAE27" stroke-width="0.52" stroke-miterlimit="10"/>
<path d="M320.862 520.591H318.615C317.918 520.591 317.047 520.591 316.054 520.591H312.727C310.288 520.486 307.5 520.591 304.399 520.294C301.298 519.996 298.128 519.857 294.887 519.542L285.445 518.353L277.274 516.884C274.87 516.517 272.919 515.957 271.525 515.66L269.365 515.153C269.365 515.153 266.247 508.911 263.738 502.389C262.466 499.154 261.282 496.042 260.463 493.647L259.156 489.573L257.275 488.926C256.055 488.471 254.191 487.999 252.048 487.037C245.783 484.669 239.658 481.943 233.704 478.872C215.528 469.578 199.039 457.284 184.924 442.503C177.376 434.629 170.532 426.105 164.471 417.028C159.2 409.118 154.569 400.798 150.621 392.147C149.75 390.258 148.879 388.44 148.148 386.709C147.416 384.978 146.806 383.212 146.196 381.673C144.872 378.561 144.036 375.728 143.235 373.438C142.852 372.284 142.503 371.252 142.19 370.36C141.876 369.469 141.719 368.612 141.528 368.07C141.179 366.811 141.005 366.146 141.005 366.146L138.339 365.15C136.597 364.503 134.141 363.594 131.371 362.352C124.204 359.268 117.224 355.765 110.465 351.861C108.584 350.777 106.685 349.676 104.821 348.539C102.957 347.403 101.337 346.249 99.5945 345.042C96.1102 342.752 92.9221 340.514 90.187 338.503C84.9606 334.481 81.3195 331.509 81.3195 331.509" stroke="#FDAE27" stroke-width="0.52" stroke-miterlimit="10"/>
<path d="M381.401 504.348L384.973 503.141L394.223 499.452C403.478 495.417 412.442 490.743 421.052 485.464C429.631 480.137 437.786 474.151 445.442 467.559L449.745 463.835C450.999 462.733 452.027 461.667 452.898 460.845L455.651 458.222C455.651 458.222 457.306 458.467 459.797 458.729C462.288 458.992 465.564 459.236 468.943 459.446C472.323 459.656 475.755 459.813 478.281 459.813H482.549L484.17 457.925L486.034 455.774L488.316 452.872C491.8 448.658 495.981 442.835 499.953 436.821L502.845 432.275C503.821 430.788 504.762 429.32 505.563 427.833C507.218 424.878 508.856 422.186 510.127 419.79L514.221 411.765C514.221 411.765 514.866 411.607 515.963 411.293L520.389 409.964C522.235 409.387 524.395 408.705 526.712 407.918C529.029 407.131 531.573 406.292 533.977 405.33C538.855 403.442 543.855 401.361 547.548 399.7L553.611 396.78C553.611 396.78 554.029 395.556 554.743 393.406C555.092 392.339 555.58 391.045 556.015 389.524C556.451 388.003 556.938 386.307 557.461 384.436C557.984 382.565 558.559 380.537 559.203 378.403C559.848 376.27 560.231 373.945 560.771 371.584C561.956 366.881 562.809 361.758 563.715 356.67C564.22 354.134 564.517 351.547 564.83 349.029C565.144 346.511 565.457 344.011 565.771 341.598C566.137 336.772 566.485 332.243 566.799 328.379C566.99 320.616 567.112 315.44 567.112 315.44" stroke="#FDAE27" stroke-width="0.52" stroke-miterlimit="10"/>
<path d="M594.673 322.819C594.673 322.819 594.673 324.008 594.586 326.106C594.586 327.155 594.586 328.432 594.481 329.883C594.377 331.334 594.255 332.995 594.115 334.779C593.697 341.965 592.652 351.512 591.119 361.006C590.701 363.366 590.283 365.727 589.865 368C589.656 369.166 589.446 370.331 589.237 371.497C588.994 372.633 588.732 373.752 588.488 374.837C587.46 379.225 586.607 383.352 585.649 386.831C583.68 393.825 582.373 398.389 582.373 398.389C582.373 398.389 585.562 405.383 588.558 413.024C590.109 416.8 591.328 420.56 592.356 423.515L593.976 428.375L593.331 429.984C592.931 431.016 592.338 432.572 591.467 434.46L588.366 441.349C587.774 442.678 587.129 444.094 586.45 445.581C585.771 447.067 584.934 448.571 584.133 450.179C582.478 453.361 580.806 456.876 578.785 460.443L572.339 471.651L564.917 483.278C562.234 487.142 559.464 491.024 556.694 494.923C546.241 508.973 534.582 522.079 521.852 534.089C511.399 543.916 503.925 549.826 503.925 549.826" stroke="#FDAE27" stroke-width="0.52" stroke-miterlimit="10"/>
<path d="M525.354 327.173C525.354 327.173 525.127 330.145 524.796 334.586C524.692 336.807 524.291 339.377 523.96 342.14C523.629 344.902 523.298 347.84 522.706 350.76C522.113 353.68 521.747 356.6 521.103 359.31C520.458 362.02 519.901 364.555 519.361 366.706C518.821 368.857 518.263 370.623 517.95 371.952C517.636 373.28 517.392 373.91 517.392 373.91C517.392 373.91 515.005 374.994 511.451 376.463C507.897 377.931 502.915 379.662 498.159 381.236C493.403 382.81 488.403 384.051 484.849 384.943C483.107 385.397 481.591 385.747 480.494 385.957L478.752 386.289L477.706 388.562C477.027 389.996 476.243 392.059 474.919 394.507C473.595 396.955 472.358 399.753 470.564 402.725L467.968 407.289C467.044 408.81 466.017 410.314 465.058 411.852C463.194 414.982 460.964 417.85 459.031 420.595C457.097 423.34 454.989 425.84 453.351 427.973L447.428 434.88" stroke="#FDAE27" stroke-width="0.52" stroke-miterlimit="10"/>
<path d="M102.016 472.018L97.6607 465.846C96.3018 464.097 94.9604 461.754 93.4099 459.394C91.8594 457.033 90.2044 454.498 88.7236 451.858C85.7097 446.612 82.6784 441.367 80.7098 437.31C79.6819 435.299 78.8108 433.621 78.2185 432.432C77.6262 431.243 77.2952 430.579 77.2952 430.579C77.2952 430.579 74.4904 429.477 70.2047 427.693C65.9191 425.91 60.1526 423.392 54.5256 420.507C51.7033 419.091 48.8636 417.622 46.1982 416.188C43.5327 414.755 41.1634 413.338 39.0554 412.114C34.9266 409.632 32.1566 407.883 32.1566 407.883C32.1566 407.883 31.6688 406.502 30.9023 404.036C30.1357 401.571 29.1602 398.039 27.9929 393.79C27.6968 392.741 27.4006 391.622 27.0696 390.486C26.7386 389.349 26.5295 388.125 26.2334 386.901C25.6759 384.436 25.0661 381.848 24.4912 379.155C23.9163 376.463 23.3414 373.682 22.8362 370.832C22.331 367.982 21.8258 365.097 21.3031 362.195C20.4669 356.39 19.7352 350.567 19.1429 345.095C18.5506 339.622 18.2196 334.446 17.9757 330.11C17.7492 321.368 17.6098 315.475 17.6098 315.475" stroke="#FDAE27" stroke-width="0.52" stroke-miterlimit="10"/>
<path d="M460.93 566.559L457.132 568.744C454.762 570.196 451.209 571.979 446.975 574.165C436.585 579.455 425.893 584.126 414.955 588.153C408.927 590.164 402.969 592.384 397.203 593.905L388.927 596.248L381.454 597.997L375.112 599.466C373.213 599.85 371.541 600.112 370.182 600.375L365.879 601.144L362.151 605.708C359.869 608.435 356.715 611.88 353.44 615.412C350.165 618.944 346.785 622.406 344.155 624.906L339.747 629.102L335.636 629.4C333.022 629.662 329.277 629.732 324.782 629.854L317.535 630.012C314.957 630.012 312.309 630.012 309.434 629.889L300.723 629.644C297.779 629.47 294.783 629.225 291.786 628.998C288.79 628.77 285.811 628.595 282.867 628.228L274.313 627.144C268.72 626.515 263.546 625.483 259.104 624.696L253.041 623.577L248.407 622.528L244.383 621.584" stroke="#FDAE27" stroke-width="0.52" stroke-miterlimit="10"/>
<path d="M170.708 105.918L171.875 105.079C172.642 104.554 173.722 103.698 175.203 102.788L180.429 99.3962C182.468 98.0674 184.767 96.5811 187.398 95.1299C199.951 87.6511 213.145 81.3138 226.822 76.1937C240.486 71.0658 254.562 67.1174 268.895 64.3914L276.891 62.9576C279.295 62.5729 281.386 62.3631 283.11 62.1183L288.546 61.4364" stroke="#FDAE27" stroke-width="0.52" stroke-miterlimit="10"/>
<path d="M390.339 73.3086C390.339 73.3086 391.21 73.5184 392.795 74.0779L399.746 76.4209C402.743 77.3476 406.244 78.7814 410.303 80.39C414.363 81.9986 418.822 84.0094 423.7 86.2125C434.721 91.4239 445.347 97.4373 455.494 104.204C467.137 111.975 478.137 120.676 488.386 130.222C507.573 148.17 523.87 168.998 536.695 191.961C538.071 194.269 539.221 196.56 540.336 198.746L543.489 204.953C545.353 208.887 546.869 212.384 548.176 215.234C549.482 218.084 550.266 220.479 550.911 221.966C551.555 223.452 551.851 224.361 551.851 224.361" stroke="#FDAE27" stroke-width="0.52" stroke-miterlimit="10"/>
<path d="M258.442 83.7996L263.86 82.5407C265.602 82.1735 267.658 81.579 270.079 81.1768L278.232 79.7256C307.592 75.0238 337.562 75.7884 366.646 81.9811L374.694 83.8345C377.098 84.3941 379.137 85.076 380.844 85.583L386.192 87.1042" stroke="#FDAE27" stroke-width="0.52" stroke-miterlimit="10"/>
<path d="M111.998 193.203L113.061 191.454C113.81 190.3 114.89 188.604 116.267 186.436C117.643 184.268 119.298 181.628 121.493 178.743C123.688 175.858 125.831 172.483 128.601 169.074L132.834 163.653L137.643 158.093L140.169 155.103C141.04 154.159 141.911 153.215 142.852 152.253L148.444 146.378C156.594 138.315 165.252 130.786 174.367 123.84C183.613 117.027 193.291 110.824 203.338 105.271C208.251 102.806 212.885 100.201 217.519 98.2772C219.819 97.2455 222.031 96.1965 224.209 95.2523L230.585 92.7344C234.627 90.9859 238.495 89.8494 241.857 88.6779C245.219 87.5064 248.216 86.6497 250.689 85.9678L256.404 84.3242C257.728 83.957 258.442 83.8346 258.442 83.8346" stroke="#FDAE27" stroke-width="0.52" stroke-miterlimit="10"/>
<path d="M80.3613 182.187C80.3613 182.187 82.0164 179.285 84.9431 174.214L90.6225 165.332C92.8001 161.835 95.5701 158.216 98.4272 154.107C99.8558 152.061 101.546 150.068 103.183 147.917C104.821 145.766 106.511 143.546 108.41 141.378C112.173 137.041 116.04 132.39 120.43 127.932C124.82 123.473 129.402 118.927 134.141 114.381C138.879 109.835 144.054 105.638 149.367 101.547C154.681 97.4554 160.046 93.5737 165.395 89.762C170.743 85.9503 176.3 82.6281 181.788 79.6032C187.276 76.5783 192.589 73.7283 197.676 71.0881C200.22 69.7767 202.903 68.7101 205.255 67.5911C207.607 66.472 210.063 65.3355 212.397 64.4263C217.049 62.6778 221.282 60.8244 225.115 59.4955L235.097 56.1035C237.867 55.2292 240.097 54.6522 241.595 54.2151L243.895 53.5507" stroke="#FDAE27" stroke-width="0.52" stroke-miterlimit="10"/>
<path d="M368.945 92.7344L370.914 93.189L373.266 93.731L376.419 94.6228C378.771 95.3047 381.645 96.074 384.921 97.0706C388.196 98.0673 391.889 99.3787 395.774 100.812C434.56 115.344 468.701 140.147 494.57 172.588C497.166 175.91 499.587 178.918 501.539 181.768C503.49 184.618 505.337 187.013 506.608 189.059L510.772 195.581" stroke="#FDAE27" stroke-width="0.52" stroke-miterlimit="10"/>
<path d="M263.25 48.8647L269.487 47.7456C271.473 47.4134 273.86 46.8889 276.647 46.5392L285.985 45.3502C302.762 43.4979 319.672 43.176 336.507 44.3885C353.335 45.638 370.013 48.4357 386.332 52.7463L395.408 55.3341C398.108 56.086 400.391 56.9777 402.377 57.5897L408.37 59.6354" stroke="#FDAE27" stroke-width="0.52" stroke-miterlimit="10"/>
<path d="M227.171 112.23C227.171 112.23 234 109.048 244.592 105.376C257.611 100.866 271.027 97.611 284.661 95.6544C298.325 93.688 312.142 93.0031 325.932 93.6086C328.772 93.6086 331.333 93.9758 333.615 94.0982C335.897 94.2206 337.9 94.3954 339.538 94.5703L344.66 95.2347" stroke="#FDAE27" stroke-width="0.52" stroke-miterlimit="10"/>
<path d="M527.793 121.34C527.793 121.34 519.657 120.518 511.852 120.063C504.047 119.609 496.173 119.819 496.173 119.819L495.546 119.224C495.145 118.822 494.535 118.245 493.717 117.476L487.079 111.688C485.72 110.464 484.187 109.24 482.532 107.946L477.306 103.89C475.564 102.439 473.63 101.075 471.679 99.6934L465.773 95.4796C461.748 92.7519 457.62 90.2341 453.787 87.7162L443.003 81.4916L432.219 75.9314L431.801 74.7949L430.651 71.9098C429.676 69.5144 428.352 66.2972 426.941 63.0625L424.833 58.2716L422.864 54.2151C421.679 51.8197 420.878 50.2285 420.878 50.2285L416.889 48.6549C414.363 47.5883 410.652 46.3818 406.227 44.8781C384.53 37.5391 362.003 32.9516 339.172 31.2224C334.503 30.8727 330.636 30.523 327.901 30.523L323.632 30.4181" stroke="#FDAE27" stroke-opacity="0.19" stroke-width="0.52" stroke-miterlimit="10"/>
<path d="M312.03 110.377H314.277C314.974 110.377 315.845 110.377 316.838 110.377L320.166 110.464C322.605 110.569 325.392 110.464 328.493 110.744C331.594 111.024 334.765 111.199 338.005 111.496L347.447 112.702L355.618 114.171C358.022 114.538 359.973 115.098 361.367 115.395L363.527 115.884C363.527 115.884 366.646 122.144 369.154 128.666C370.426 131.901 371.611 134.996 372.429 137.408L373.736 141.482L375.618 142.129C376.837 142.584 378.701 143.039 380.844 144C387.106 146.376 393.23 149.102 399.189 152.166C417.361 161.473 433.849 173.772 447.968 188.552C455.521 196.422 462.365 204.947 468.421 214.027C473.693 221.933 478.319 230.254 482.253 238.909C483.124 240.797 483.995 242.615 484.727 244.346C485.459 246.077 486.069 247.843 486.678 249.365C488.002 252.494 488.839 255.327 489.64 257.617C490.023 258.771 490.372 259.786 490.685 260.677C490.999 261.569 491.156 262.426 491.347 262.985L491.87 264.909L494.535 265.888C496.277 266.552 498.734 267.461 501.504 268.703C508.674 271.78 515.655 275.283 522.409 279.194C524.291 280.26 526.19 281.38 528.054 282.499C529.918 283.618 531.538 284.789 533.28 285.996C536.765 288.269 539.953 290.524 542.688 292.535C547.914 296.556 551.555 299.529 551.555 299.529" stroke="#FDAE27" stroke-width="0.52" stroke-miterlimit="10"/>
<path d="M251.491 126.62L247.919 127.827L238.669 131.516C229.414 135.55 220.449 140.224 211.84 145.504C203.264 150.842 195.11 156.833 187.45 163.426L183.147 167.115C181.893 168.217 180.865 169.284 179.994 170.105L177.241 172.728C177.241 172.728 175.499 172.483 173.095 172.221C170.691 171.959 167.328 171.714 163.949 171.487C160.569 171.259 157.12 171.119 154.611 171.137H150.343L148.723 173.008L146.858 175.158L144.576 178.078C141.092 182.275 136.911 188.115 132.939 194.13L130.047 198.658C129.071 200.144 128.131 201.631 127.329 203.117C125.674 206.054 124.037 208.765 122.765 211.142L118.671 219.186C118.671 219.186 118.026 219.325 116.929 219.64L112.504 220.986C110.657 221.546 108.497 222.245 106.18 223.015C103.863 223.784 101.319 224.658 98.915 225.62C94.037 227.508 89.0371 229.572 85.3438 231.25L79.2812 234.17L78.1488 237.527C77.8004 238.611 77.3126 239.905 76.8771 241.409C76.4415 242.913 75.9537 244.644 75.4311 246.515C74.9085 248.385 74.3336 250.396 73.689 252.547C73.0444 254.697 72.6611 257.005 72.121 259.366C70.9364 264.069 70.0828 269.175 69.1768 274.281C68.6716 276.816 68.3755 279.386 68.0619 281.922C67.7483 284.457 67.4347 286.94 67.1211 289.335C66.7553 294.178 66.4069 298.69 66.0933 302.571L65.7797 315.493" stroke="#FDAE27" stroke-width="0.52" stroke-miterlimit="10"/>
<path d="M38.2192 308.219C38.2192 308.219 38.2192 307.012 38.2192 304.932C38.2192 303.883 38.2192 302.606 38.3238 301.138C38.4283 299.669 38.5502 298.043 38.6896 296.242C39.1077 289.073 40.153 279.509 41.6861 270.014C42.1042 267.654 42.5223 265.276 42.9404 263.02L43.5676 259.523C43.8115 258.387 44.0728 257.268 44.3167 256.166C45.3445 251.778 46.1982 247.669 47.1564 244.189C49.125 237.195 50.4316 232.632 50.4316 232.632C50.4316 232.632 47.2435 225.533 44.247 217.997C42.6965 214.22 41.477 210.461 40.4492 207.506L38.829 202.645L39.4736 201.054C39.8743 200.005 40.4666 198.466 41.3377 196.56L44.4386 189.689C45.031 188.36 45.6756 186.943 46.355 185.457L48.672 180.859C50.327 177.676 51.9995 174.162 54.0204 170.595L60.4662 159.387L67.8877 147.742C70.5706 143.878 73.3406 139.996 76.1106 136.115C86.5553 122.057 98.2147 108.951 110.953 96.9484C121.406 87.1218 128.88 81.2119 128.88 81.2119" stroke="#FDAE27" stroke-width="0.52" stroke-miterlimit="10"/>
<path d="M107.539 303.778L108.096 296.382C108.201 294.143 108.601 291.591 108.932 288.828C109.263 286.065 109.594 283.11 110.187 280.208C110.779 277.305 111.145 274.35 111.789 271.658C112.434 268.965 112.991 266.412 113.532 264.262C114.072 262.111 114.629 260.328 114.943 259.016L115.5 257.058C115.5 257.058 117.887 255.991 121.441 254.523C124.995 253.054 129.977 251.323 134.733 249.749C139.489 248.176 144.489 246.917 148.043 246.025C149.785 245.588 151.301 245.238 152.398 245.028L154.141 244.679L155.186 242.406C155.865 240.989 156.649 238.909 157.973 236.461C159.297 234.013 160.534 231.215 162.329 228.26L164.924 223.697C165.848 222.175 166.876 220.654 167.834 219.116C169.698 216.003 171.928 213.118 173.861 210.373C175.795 207.628 177.903 205.128 179.541 202.994L185.464 196.088" stroke="#FDAE27" stroke-width="0.52" stroke-miterlimit="10"/>
<path d="M530.876 158.95L535.231 165.105C536.59 166.853 537.932 169.214 539.482 171.574C541.033 173.935 542.688 176.47 544.169 179.093C547.182 184.338 550.214 189.584 552.182 193.64L554.674 198.518C555.283 199.707 555.597 200.389 555.597 200.389C555.597 200.389 558.402 201.473 562.687 203.274C566.973 205.075 572.739 207.576 578.367 210.443C581.189 211.877 584.028 213.346 586.694 214.779C589.359 216.213 591.729 217.629 593.837 218.853C598.018 221.319 600.805 223.085 600.805 223.085C600.805 223.085 601.293 224.466 602.059 226.914C602.826 229.362 603.802 232.929 604.969 237.16C605.265 238.227 605.561 239.328 605.892 240.482C606.223 241.636 606.432 242.825 606.728 244.067C607.286 246.515 607.896 249.12 608.471 251.795C609.045 254.47 609.62 257.285 610.126 260.135C610.631 262.985 611.136 265.87 611.659 268.755C612.495 274.578 613.227 280.4 613.819 285.873C614.411 291.346 614.672 296.469 614.916 300.858C615.143 309.6 615.282 315.475 615.282 315.475" stroke="#FDAE27" stroke-width="0.52" stroke-miterlimit="10"/>
<path d="M171.963 64.3913L175.76 62.2232C178.13 60.772 181.684 58.9885 185.917 56.8029C196.304 51.5052 206.996 46.8342 217.937 42.8149C223.965 40.8041 229.923 38.5661 235.69 37.0449L243.947 34.7019L251.439 32.9534L257.78 31.5022C259.679 31.1175 261.351 30.8377 262.71 30.5755L267.013 29.8061L270.828 25.2425C273.111 22.5149 276.264 19.0878 279.539 15.5559C282.814 12.0239 286.194 8.56191 288.807 6.06157L293.128 1.86518L297.239 1.55045C299.852 1.30566 303.598 1.23572 308.093 1.11333L315.34 0.938477C317.918 0.938477 320.566 0.938477 323.441 1.07836L332.151 1.32315C335.096 1.49799 338.092 1.74278 341.089 1.9526C344.085 2.16242 347.064 2.37224 350.008 2.73943L358.719 3.82349C364.311 4.45295 369.485 5.57199 373.928 6.2539L379.99 7.37294L384.624 8.43952L388.649 9.36622" stroke="#FDAE27" stroke-opacity="0.04" stroke-width="0.52" stroke-miterlimit="10"/>
<path d="M244.697 68.1241L237.24 70.3779C236.503 70.6007 236.086 71.3809 236.308 72.1206L236.78 73.6944C237.002 74.4341 237.779 74.8532 238.516 74.6304L245.973 72.3766C246.71 72.1539 247.127 71.3736 246.905 70.6339L246.433 69.0601C246.211 68.3204 245.434 67.9013 244.697 68.1241Z" fill="#FDAE27"/>
<path d="M29.5632 388.857L27.758 379.341C27.5781 378.393 26.666 377.77 25.7208 377.951L23.7356 378.33C22.7904 378.511 22.1701 379.426 22.3501 380.375L24.1552 389.891C24.3352 390.839 25.2473 391.462 26.1925 391.281L28.1777 390.902C29.1229 390.721 29.7432 389.806 29.5632 388.857Z" fill="#FDAE27"/>
<path d="M306.921 552.031L299.895 551.622C299.194 551.581 298.592 552.118 298.552 552.822L298.466 554.306C298.425 555.009 298.961 555.613 299.662 555.654L306.688 556.063C307.389 556.104 307.991 555.566 308.031 554.862L308.117 553.379C308.158 552.675 307.622 552.071 306.921 552.031Z" fill="#FDAE27"/>
<path d="M564.532 362.3L565.751 355.254C565.871 354.559 565.407 353.899 564.715 353.778L563.239 353.521C562.547 353.4 561.889 353.865 561.769 354.56L560.55 361.606C560.43 362.3 560.893 362.961 561.585 363.082L563.061 363.339C563.753 363.46 564.412 362.994 564.532 362.3Z" fill="#FDAE27"/>
<path d="M492.931 131.622L487.602 126.875C487.077 126.407 486.273 126.455 485.807 126.982L484.812 128.107C484.346 128.634 484.394 129.441 484.919 129.909L490.248 134.656C490.774 135.124 491.577 135.076 492.044 134.548L493.038 133.424C493.504 132.896 493.457 132.09 492.931 131.622Z" fill="#FDAE27"/>
<path d="M469.4 542.644L475.27 538.59C475.849 538.191 475.995 537.396 475.597 536.815L474.747 535.577C474.349 534.996 473.558 534.849 472.979 535.249L467.109 539.302C466.53 539.702 466.384 540.496 466.782 541.077L467.631 542.316C468.029 542.897 468.821 543.044 469.4 542.644Z" fill="#FDAE27"/>
<path d="M81.5268 125.889L77.139 131.523C76.7065 132.079 76.8045 132.881 77.3579 133.315L78.5384 134.241C79.0918 134.675 79.891 134.577 80.3235 134.021L84.7113 128.387C85.1438 127.831 85.0458 127.029 84.4924 126.595L83.312 125.669C82.7586 125.235 81.9593 125.333 81.5268 125.889Z" fill="#FDAE27"/>
<path d="M131.667 81.0894C131.667 81.6496 131.502 82.1973 131.191 82.6631C130.881 83.1289 130.441 83.4919 129.925 83.7063C129.409 83.9207 128.842 83.9768 128.294 83.8675C127.747 83.7582 127.244 83.4885 126.849 83.0923C126.454 82.6962 126.186 82.1915 126.077 81.642C125.968 81.0925 126.024 80.523 126.237 80.0054C126.451 79.4878 126.813 79.0455 127.277 78.7342C127.741 78.423 128.287 78.2568 128.845 78.2568C129.592 78.2614 130.307 78.5613 130.835 79.0915C131.364 79.6218 131.663 80.3396 131.667 81.0894V81.0894Z" fill="#FDAE27"/>
<path d="M392.115 72.8715C392.115 73.4317 391.95 73.9794 391.64 74.4452C391.33 74.911 390.889 75.2741 390.373 75.4885C389.858 75.7028 389.29 75.7589 388.743 75.6496C388.195 75.5403 387.692 75.2706 387.298 74.8744C386.903 74.4783 386.634 73.9736 386.525 73.4241C386.416 72.8746 386.472 72.3051 386.686 71.7875C386.899 71.2699 387.261 70.8276 387.725 70.5163C388.189 70.2051 388.735 70.0389 389.293 70.0389C390.042 70.0389 390.76 70.3374 391.289 70.8686C391.818 71.3998 392.115 72.1203 392.115 72.8715V72.8715Z" fill="#FDAE27"/>
<path d="M82.4171 183.656C82.4171 184.216 82.2515 184.764 81.9414 185.23C81.6313 185.696 81.1905 186.059 80.6748 186.273C80.1591 186.487 79.5917 186.544 79.0442 186.434C78.4968 186.325 77.9939 186.055 77.5992 185.659C77.2045 185.263 76.9357 184.758 76.8268 184.209C76.7179 183.659 76.7738 183.09 76.9874 182.572C77.201 182.055 77.5627 181.612 78.0268 181.301C78.491 180.99 79.0366 180.824 79.5948 180.824C79.9661 180.821 80.3341 180.893 80.6776 181.034C81.021 181.176 81.3331 181.385 81.5956 181.648C81.8581 181.911 82.0659 182.225 82.2069 182.569C82.348 182.914 82.4194 183.283 82.4171 183.656V183.656Z" fill="#FDAE27"/>
<path d="M532.618 156.642C532.618 157.202 532.453 157.75 532.143 158.216C531.832 158.681 531.392 159.044 530.876 159.259C530.36 159.473 529.793 159.529 529.245 159.42C528.698 159.311 528.195 159.041 527.8 158.645C527.406 158.249 527.137 157.744 527.028 157.194C526.919 156.645 526.975 156.075 527.189 155.558C527.402 155.04 527.764 154.598 528.228 154.287C528.692 153.975 529.238 153.809 529.796 153.809C530.544 153.809 531.262 154.108 531.792 154.639C532.321 155.17 532.618 155.891 532.618 156.642V156.642Z" fill="#FDAE27"/>
<path d="M413.16 60.2824C413.16 60.8434 412.994 61.3917 412.684 61.8579C412.373 62.3241 411.931 62.6871 411.414 62.901C410.897 63.1149 410.329 63.1699 409.781 63.0592C409.233 62.9485 408.73 62.677 408.336 62.2791C407.942 61.8812 407.675 61.3749 407.568 60.8243C407.461 60.2736 407.519 59.7036 407.736 59.1863C407.952 58.669 408.317 58.2279 408.783 57.9187C409.249 57.6096 409.797 57.4464 410.356 57.4499C410.725 57.4499 411.092 57.5233 411.433 57.6658C411.774 57.8084 412.084 58.0173 412.345 58.2806C412.606 58.5438 412.812 58.8562 412.952 59.1998C413.092 59.5433 413.163 59.9113 413.16 60.2824Z" fill="#FDAE27"/>
<path d="M524.552 435.859C524.552 436.42 524.386 436.968 524.075 437.434C523.764 437.901 523.323 438.264 522.806 438.478C522.289 438.691 521.721 438.746 521.173 438.636C520.625 438.525 520.122 438.254 519.728 437.856C519.334 437.458 519.067 436.951 518.96 436.401C518.853 435.85 518.911 435.28 519.128 434.763C519.344 434.246 519.708 433.804 520.175 433.495C520.641 433.186 521.188 433.023 521.747 433.026C522.117 433.026 522.483 433.1 522.825 433.242C523.166 433.385 523.476 433.594 523.737 433.857C523.998 434.12 524.204 434.433 524.344 434.776C524.484 435.12 524.555 435.488 524.552 435.859V435.859Z" fill="#FDAE27"/>
<path d="M528.193 325.232C528.193 325.792 528.028 326.34 527.718 326.805C527.407 327.271 526.967 327.634 526.451 327.849C525.935 328.063 525.368 328.119 524.82 328.01C524.273 327.901 523.77 327.631 523.375 327.235C522.981 326.838 522.712 326.334 522.603 325.784C522.494 325.235 522.55 324.665 522.764 324.148C522.977 323.63 523.339 323.188 523.803 322.877C524.267 322.565 524.813 322.399 525.371 322.399C526.118 322.404 526.833 322.704 527.362 323.234C527.89 323.764 528.189 324.482 528.193 325.232V325.232Z" fill="#FDAE27"/>
<path d="M325.27 520.556C325.27 521.116 325.104 521.664 324.794 522.13C324.484 522.596 324.043 522.959 323.528 523.173C323.012 523.387 322.445 523.443 321.897 523.334C321.35 523.225 320.847 522.955 320.452 522.559C320.057 522.163 319.789 521.658 319.68 521.109C319.571 520.559 319.627 519.99 319.84 519.472C320.054 518.954 320.416 518.512 320.88 518.201C321.344 517.89 321.89 517.723 322.448 517.723C322.819 517.721 323.187 517.793 323.53 517.934C323.874 518.076 324.186 518.284 324.449 518.548C324.711 518.811 324.919 519.125 325.06 519.469C325.201 519.814 325.272 520.183 325.27 520.556Z" fill="#FDAE27"/>
<path d="M226.091 570.493C226.094 571.055 225.931 571.605 225.622 572.073C225.313 572.542 224.873 572.907 224.356 573.124C223.84 573.341 223.271 573.398 222.722 573.289C222.173 573.181 221.668 572.911 221.273 572.513C220.877 572.116 220.608 571.61 220.499 571.059C220.391 570.508 220.449 569.937 220.664 569.418C220.88 568.9 221.244 568.458 221.711 568.148C222.178 567.838 222.726 567.675 223.286 567.678C224.03 567.678 224.743 567.975 225.269 568.503C225.795 569.03 226.091 569.746 226.091 570.493V570.493Z" fill="#FDAE27"/>
<path d="M345.13 569.654C345.13 570.212 344.966 570.757 344.658 571.222C344.35 571.687 343.912 572.05 343.4 572.265C342.887 572.481 342.322 572.54 341.776 572.435C341.23 572.33 340.727 572.065 340.331 571.675C339.934 571.284 339.661 570.784 339.547 570.238C339.432 569.692 339.48 569.124 339.686 568.606C339.892 568.087 340.245 567.641 340.702 567.324C341.159 567.006 341.7 566.832 342.256 566.821C342.631 566.814 343.003 566.882 343.352 567.022C343.7 567.161 344.018 567.368 344.285 567.632C344.553 567.896 344.765 568.21 344.911 568.558C345.056 568.905 345.13 569.277 345.13 569.654V569.654Z" fill="#FDAE27"/>
<path d="M504.936 550.997C504.936 551.557 504.77 552.105 504.46 552.571C504.15 553.037 503.709 553.4 503.194 553.614C502.678 553.829 502.11 553.885 501.563 553.775C501.015 553.666 500.513 553.396 500.118 553C499.723 552.604 499.454 552.099 499.346 551.55C499.237 551 499.292 550.431 499.506 549.913C499.72 549.396 500.081 548.953 500.546 548.642C501.01 548.331 501.555 548.165 502.114 548.165C502.862 548.165 503.58 548.463 504.109 548.994C504.639 549.526 504.936 550.246 504.936 550.997V550.997Z" fill="#FDAE27"/>
<path d="M20.3624 312.992C20.3624 313.553 20.1964 314.102 19.8855 314.568C19.5746 315.034 19.1328 315.397 18.6161 315.611C18.0994 315.825 17.531 315.88 16.9831 315.769C16.4352 315.658 15.9323 315.387 15.5383 314.989C15.1443 314.591 14.8769 314.085 14.77 313.534C14.6631 312.984 14.7215 312.413 14.9378 311.896C15.154 311.379 15.5185 310.938 15.9849 310.629C16.4513 310.319 16.9987 310.156 17.5576 310.16C18.3031 310.164 19.0164 310.465 19.5419 310.996C20.0675 311.526 20.3624 312.244 20.3624 312.992V312.992Z" fill="#FDAE27"/>
<path d="M106.11 474.151C106.11 474.712 105.944 475.26 105.633 475.726C105.322 476.193 104.88 476.556 104.364 476.769C103.847 476.983 103.279 477.038 102.731 476.928C102.183 476.817 101.68 476.545 101.286 476.148C100.892 475.75 100.625 475.243 100.518 474.693C100.411 474.142 100.469 473.572 100.685 473.055C100.902 472.537 101.266 472.096 101.733 471.787C102.199 471.478 102.746 471.315 103.305 471.318C103.675 471.318 104.041 471.392 104.383 471.534C104.724 471.677 105.034 471.886 105.295 472.149C105.555 472.412 105.762 472.725 105.902 473.068C106.041 473.412 106.112 473.78 106.11 474.151Z" fill="#FDAE27"/>
<path d="M105.222 509.033C105.222 509.594 105.056 510.141 104.746 510.607C104.436 511.073 103.995 511.436 103.479 511.65C102.964 511.865 102.396 511.921 101.849 511.812C101.301 511.702 100.798 511.433 100.404 511.036C100.009 510.64 99.7402 510.136 99.6313 509.586C99.5224 509.037 99.5783 508.467 99.7919 507.949C100.005 507.432 100.367 506.99 100.831 506.678C101.295 506.367 101.841 506.201 102.399 506.201C103.146 506.206 103.862 506.505 104.39 507.036C104.918 507.566 105.217 508.284 105.222 509.033Z" stroke="#FDAE27" stroke-width="0.52" stroke-miterlimit="10"/>
<path d="M81.9119 329.708C81.9153 330.269 81.7527 330.818 81.4447 331.286C81.1367 331.754 80.6971 332.12 80.1817 332.337C79.6664 332.554 79.0984 332.613 78.5498 332.506C78.0011 332.398 77.4966 332.13 77.1002 331.734C76.7038 331.339 76.4332 330.834 76.3229 330.284C76.2126 329.734 76.2675 329.164 76.4805 328.645C76.6936 328.127 77.0553 327.683 77.5198 327.371C77.9843 327.059 78.5307 326.893 79.0896 326.893C79.4594 326.89 79.826 326.962 80.1683 327.102C80.5106 327.242 80.8219 327.449 81.0842 327.711C81.3465 327.973 81.5546 328.284 81.6967 328.626C81.8387 328.969 81.9119 329.337 81.9119 329.708Z" stroke="#FDAE27" stroke-width="0.52" stroke-miterlimit="10"/>
<path d="M256.891 125.169C256.891 125.729 256.726 126.277 256.416 126.743C256.106 127.208 255.665 127.572 255.149 127.786C254.633 128 254.066 128.056 253.519 127.947C252.971 127.838 252.468 127.568 252.074 127.172C251.679 126.776 251.41 126.271 251.301 125.722C251.192 125.172 251.248 124.603 251.462 124.085C251.675 123.567 252.037 123.125 252.501 122.814C252.965 122.503 253.511 122.336 254.069 122.336C254.818 122.336 255.536 122.635 256.065 123.166C256.594 123.697 256.891 124.418 256.891 125.169V125.169Z" stroke="#FDAE27" stroke-width="0.52" stroke-miterlimit="10"/>
<path d="M312.291 110.482C312.295 111.043 312.132 111.592 311.824 112.06C311.516 112.528 311.076 112.894 310.561 113.111C310.046 113.328 309.478 113.387 308.929 113.279C308.38 113.172 307.876 112.904 307.479 112.508C307.083 112.113 306.812 111.608 306.702 111.058C306.592 110.508 306.647 109.938 306.86 109.419C307.073 108.901 307.435 108.457 307.899 108.145C308.364 107.833 308.91 107.667 309.469 107.667C309.839 107.664 310.205 107.735 310.548 107.876C310.89 108.016 311.201 108.223 311.463 108.485C311.726 108.747 311.934 109.058 312.076 109.4C312.218 109.743 312.291 110.11 312.291 110.482V110.482Z" stroke="#FDAE27" stroke-width="0.52" stroke-miterlimit="10"/>
<path d="M533.35 121.672C533.35 122.232 533.185 122.78 532.874 123.246C532.564 123.712 532.123 124.075 531.608 124.289C531.092 124.503 530.525 124.559 529.977 124.45C529.43 124.341 528.927 124.071 528.532 123.675C528.137 123.279 527.869 122.774 527.76 122.225C527.651 121.675 527.707 121.106 527.92 120.588C528.134 120.07 528.496 119.628 528.96 119.317C529.424 119.006 529.97 118.839 530.528 118.839C531.276 118.839 531.994 119.138 532.523 119.669C533.053 120.2 533.35 120.921 533.35 121.672V121.672Z" stroke="#FDAE27" stroke-width="0.52" stroke-miterlimit="10"/>
<path d="M514.971 197.924C514.974 198.485 514.811 199.034 514.503 199.502C514.195 199.97 513.756 200.336 513.24 200.553C512.725 200.77 512.157 200.829 511.608 200.722C511.06 200.614 510.555 200.346 510.159 199.95C509.763 199.555 509.492 199.05 509.382 198.5C509.271 197.95 509.326 197.38 509.539 196.861C509.752 196.343 510.114 195.899 510.579 195.587C511.043 195.275 511.589 195.109 512.148 195.109C512.518 195.106 512.885 195.178 513.227 195.318C513.569 195.458 513.881 195.665 514.143 195.927C514.405 196.189 514.613 196.5 514.755 196.842C514.897 197.185 514.971 197.553 514.971 197.924Z" stroke="#FDAE27" stroke-width="0.52" stroke-miterlimit="10"/>
<path d="M597.251 320.283C597.251 320.844 597.086 321.391 596.776 321.857C596.466 322.323 596.025 322.686 595.509 322.9C594.993 323.115 594.426 323.171 593.878 323.062C593.331 322.952 592.828 322.683 592.433 322.286C592.039 321.89 591.77 321.386 591.661 320.836C591.552 320.287 591.608 319.717 591.822 319.2C592.035 318.682 592.397 318.24 592.861 317.928C593.325 317.617 593.871 317.451 594.429 317.451C595.176 317.456 595.891 317.755 596.42 318.286C596.948 318.816 597.247 319.534 597.251 320.283Z" stroke="#FDAE27" stroke-width="0.52" stroke-miterlimit="10"/>
<path d="M555.667 226.791C555.67 227.352 555.508 227.902 555.2 228.37C554.892 228.838 554.452 229.204 553.937 229.421C553.421 229.638 552.853 229.696 552.305 229.589C551.756 229.482 551.251 229.213 550.855 228.818C550.459 228.423 550.188 227.918 550.078 227.368C549.967 226.818 550.022 226.248 550.235 225.729C550.448 225.21 550.81 224.767 551.275 224.455C551.739 224.143 552.286 223.976 552.844 223.976C553.59 223.976 554.305 224.272 554.834 224.8C555.363 225.327 555.662 226.043 555.667 226.791V226.791Z" stroke="#FDAE27" stroke-width="0.52" stroke-miterlimit="10"/>
<path d="M381.959 505.327C381.959 505.887 381.793 506.434 381.483 506.9C381.173 507.366 380.732 507.729 380.217 507.943C379.701 508.158 379.134 508.214 378.586 508.105C378.039 507.995 377.536 507.726 377.141 507.329C376.746 506.933 376.478 506.429 376.369 505.879C376.26 505.33 376.316 504.76 376.529 504.242C376.743 503.725 377.105 503.283 377.569 502.971C378.033 502.66 378.578 502.494 379.137 502.494C379.884 502.498 380.599 502.798 381.127 503.329C381.656 503.859 381.954 504.577 381.959 505.327V505.327Z" stroke="#FDAE27" stroke-width="0.52" stroke-miterlimit="10"/>
</g>
</g>
<defs>
<clipPath id="clip0_0_444">
<rect width="630" height="630" fill="white" transform="translate(6.10352e-05 0.475098)"/>
</clipPath>
</defs>
</svg>
