<?xml version="1.0" encoding="UTF-8"?>
<svg width="60px" height="60px" viewBox="0 0 60 60" version="1.1" xmlns="http://www.w3.org/2000/svg" xmlns:xlink="http://www.w3.org/1999/xlink">
    <!-- Generator: Sketch 49 (51002) - http://www.bohemiancoding.com/sketch -->
    <title>Artboard Copy 3</title>
    <desc>Created with Sketch.</desc>
    <defs></defs>
    <g id="Artboard-Copy-3" stroke="none" stroke-width="1" fill="none" fill-rule="evenodd">
        <g id="04_account">
            <path d="M17.7,46.14 C17.64,46.14 17.64,46.14 17.58,46.14 C17.28,46.08 17.1,45.78 17.16,45.48 C17.16,45.36 17.88,42.66 19.44,39.84 C20.4,38.22 21.48,36.9 22.62,35.94 C24.12,34.74 25.8,34.08 27.54,34.08 L29.88,34.08 C30.18,34.08 30.42,34.32 30.42,34.62 C30.42,34.92 30.18,35.16 29.88,35.16 L27.6,35.16 C26.1,35.16 24.66,35.7 23.34,36.72 C22.26,37.56 21.3,38.82 20.4,40.32 C18.9,42.96 18.18,45.66 18.18,45.66 C18.18,46.02 17.94,46.14 17.7,46.14 Z" id="Shape" fill="#929292" fill-rule="nonzero"></path>
            <path d="M42.24,46.14 C42,46.14 41.76,45.96 41.7,45.72 C41.7,45.72 41.04,43.02 39.48,40.38 C38.58,38.88 37.62,37.62 36.54,36.78 C35.22,35.76 33.84,35.22 32.28,35.22 L30,35.22 C29.7,35.22 29.46,34.98 29.46,34.68 C29.46,34.38 29.7,34.14 30,34.14 L32.34,34.14 C34.14,34.14 35.76,34.74 37.26,36 C38.46,36.96 39.54,38.28 40.44,39.9 C42.06,42.66 42.72,45.42 42.72,45.54 C42.78,45.84 42.6,46.14 42.3,46.2 C42.3,46.14 42.3,46.14 42.24,46.14 Z" id="Shape" fill="#929292" fill-rule="nonzero"></path>
            <path d="M29.94,32.76 C25.86,32.76 22.56,29.46 22.56,25.38 C22.56,21.3 25.86,18 29.94,18 C34.02,18 37.32,21.3 37.32,25.38 C37.32,29.46 34.02,32.76 29.94,32.76 Z M29.94,19.14 C26.46,19.14 23.64,21.96 23.64,25.44 C23.64,28.92 26.46,31.74 29.94,31.74 C33.42,31.74 36.24,28.92 36.24,25.44 C36.24,21.96 33.42,19.14 29.94,19.14 Z" id="Shape" fill="#929292" fill-rule="nonzero"></path>
            <g id="Group" transform="translate(36.000000, 9.000000)" fill="#3067F0" fill-rule="nonzero">
                <path d="M8.22,14.22 L5.88,14.22 C5.58,14.22 5.34,13.98 5.34,13.68 L5.34,12.6 C5.34,12.6 5.34,12.6 5.28,12.6 L4.68,13.44 C4.5,13.68 4.14,13.74 3.9,13.56 L2.04,12.18 C1.8,12 1.74,11.64 1.92,11.4 L2.52,10.56 C2.52,10.56 2.52,10.56 2.52,10.56 L1.5,10.86 C1.38,10.92 1.2,10.92 1.08,10.8 C0.96,10.74 0.84,10.62 0.78,10.5 L0.06,8.28 C-0.06,7.98 0.12,7.68 0.42,7.56 L1.44,7.2 C1.44,7.2 1.44,7.2 1.44,7.2 L0.42,6.84 C0.12,6.72 -0.06,6.42 0.06,6.12 L0.78,3.9 C0.84,3.78 0.9,3.66 1.08,3.6 C1.2,3.6 1.32,3.6 1.5,3.6 L2.52,3.96 C2.52,3.96 2.52,3.96 2.52,3.96 L1.86,3.06 C1.68,2.82 1.74,2.46 1.98,2.28 L3.84,0.9 C4.08,0.72 4.44,0.78 4.62,1.02 L5.28,1.92 C5.28,1.92 5.28,1.92 5.28,1.92 L5.28,0.84 C5.28,0.54 5.52,0.3 5.82,0.3 L8.16,0.3 C8.46,0.3 8.7,0.54 8.7,0.84 L8.7,1.92 C8.7,1.92 8.7,1.92 8.7,1.92 L9.36,1.02 C9.54,0.78 9.9,0.72 10.14,0.9 L12,2.28 C12.24,2.46 12.3,2.82 12.12,3.06 L11.46,3.96 C11.46,3.96 11.46,3.96 11.46,3.96 L12.6,3.6 C12.72,3.54 12.9,3.54 13.02,3.66 C13.14,3.72 13.26,3.84 13.32,3.96 L14.04,6.18 C14.16,6.48 13.98,6.78 13.68,6.9 L12.66,7.26 C12.66,7.26 12.66,7.26 12.66,7.26 L13.68,7.62 C13.98,7.74 14.16,8.04 14.04,8.34 L13.32,10.56 C13.26,10.68 13.2,10.8 13.02,10.86 C12.9,10.92 12.72,10.92 12.6,10.92 L11.58,10.62 C11.58,10.62 11.58,10.62 11.58,10.62 L12.18,11.46 C12.36,11.7 12.3,12.06 12.06,12.24 L10.2,13.56 C9.96,13.74 9.6,13.68 9.42,13.44 L8.82,12.6 C8.82,12.6 8.82,12.6 8.76,12.6 L8.76,13.62 C8.76,13.98 8.52,14.22 8.22,14.22 Z M6.42,13.14 L7.62,13.14 L7.62,12.24 C7.62,12 7.8,11.76 8.04,11.7 C8.28,11.64 8.52,11.58 8.76,11.46 C9,11.34 9.3,11.46 9.42,11.64 L9.96,12.36 L10.92,11.64 L10.38,10.92 C10.2,10.74 10.26,10.44 10.38,10.26 C10.56,10.08 10.68,9.9 10.8,9.66 C10.92,9.42 11.22,9.36 11.46,9.42 L12.36,9.72 L12.72,8.58 L11.82,8.28 C11.58,8.22 11.4,7.98 11.46,7.74 C11.46,7.62 11.46,7.5 11.46,7.38 C11.46,7.26 11.46,7.14 11.46,6.96 C11.46,6.72 11.58,6.48 11.82,6.36 L12.72,6.06 L12.36,4.92 L11.46,5.22 C11.22,5.28 10.98,5.22 10.8,4.98 C10.68,4.8 10.5,4.56 10.38,4.38 C10.2,4.2 10.2,3.9 10.38,3.66 L10.92,2.88 L9.96,2.16 L9.42,2.94 C9.24,3.12 9,3.24 8.76,3.12 C8.52,3 8.34,2.94 8.1,2.88 C7.86,2.82 7.68,2.58 7.68,2.34 L7.68,1.38 L6.48,1.38 L6.48,2.34 C6.48,2.58 6.3,2.82 6.06,2.88 C5.82,2.94 5.58,3 5.4,3.12 C5.16,3.24 4.86,3.12 4.74,2.94 L4.2,2.16 L3.24,2.88 L3.78,3.66 C3.96,3.84 3.9,4.14 3.78,4.38 C3.6,4.56 3.48,4.74 3.36,4.98 C3.24,5.22 2.94,5.28 2.7,5.22 L1.8,4.92 L1.32,6 L2.22,6.3 C2.46,6.36 2.64,6.6 2.58,6.9 C2.58,7.02 2.58,7.14 2.58,7.32 C2.58,7.44 2.58,7.56 2.58,7.68 C2.58,7.92 2.46,8.16 2.22,8.22 L1.32,8.52 L1.68,9.66 L2.58,9.36 C2.82,9.3 3.12,9.36 3.24,9.6 C3.36,9.84 3.54,10.02 3.66,10.2 C3.84,10.38 3.84,10.68 3.66,10.86 L3.12,11.58 L4.08,12.3 L4.62,11.58 C4.8,11.4 5.04,11.28 5.28,11.4 C5.52,11.52 5.76,11.58 6,11.64 C6.24,11.7 6.42,11.94 6.42,12.18 L6.42,13.14 Z" id="Shape"></path>
                <path d="M7.08,10.32 C5.4,10.32 4.02,8.94 4.02,7.26 C4.02,5.58 5.4,4.2 7.08,4.2 C8.76,4.2 10.14,5.58 10.14,7.26 C10.14,8.94 8.76,10.32 7.08,10.32 Z M7.08,5.28 C6,5.28 5.1,6.18 5.1,7.26 C5.1,8.34 6,9.24 7.08,9.24 C8.16,9.24 9.06,8.34 9.06,7.26 C9,6.18 8.16,5.28 7.08,5.28 Z" id="Shape"></path>
            </g>
            <path d="M49.02,26.82 C48.78,26.82 48.54,26.64 48.48,26.4 C48.36,25.98 48.24,25.5 48.12,25.08 C48.06,24.78 48.18,24.48 48.48,24.36 C48.78,24.3 49.08,24.42 49.2,24.72 C49.32,25.2 49.44,25.68 49.56,26.1 C49.62,26.4 49.44,26.7 49.14,26.76 C49.08,26.82 49.08,26.82 49.02,26.82 Z" id="Shape" fill="#929292" fill-rule="nonzero"></path>
            <path d="M30,50.64 C27.3,50.64 24.66,50.1 22.2,49.08 C19.8,48.06 17.64,46.62 15.84,44.76 C14.04,42.9 12.54,40.8 11.52,38.4 C10.5,35.94 9.96,33.3 9.96,30.6 C9.96,27.9 10.5,25.26 11.52,22.8 C12.54,20.4 13.98,18.24 15.84,16.44 C17.7,14.64 19.8,13.08 22.2,12.06 C24.66,11.04 27.3,10.5 30,10.5 C31.5,10.5 32.94,10.68 34.38,10.98 C34.68,11.04 34.86,11.34 34.8,11.64 C34.74,11.94 34.44,12.12 34.14,12.06 C32.82,11.76 31.38,11.58 30,11.58 C24.96,11.58 20.16,13.56 16.62,17.1 C13.02,20.7 11.1,25.44 11.1,30.48 C11.1,35.52 13.08,40.32 16.62,43.86 C20.22,47.46 24.96,49.38 30,49.38 C35.04,49.38 39.84,47.4 43.38,43.86 C46.98,40.26 48.9,35.52 48.9,30.48 C48.9,29.94 48.9,29.4 48.84,28.86 C48.84,28.56 49.02,28.26 49.32,28.26 C49.62,28.26 49.92,28.44 49.92,28.74 C49.98,29.28 49.98,29.88 49.98,30.48 C49.98,33.18 49.44,35.82 48.42,38.28 C47.4,40.68 45.96,42.84 44.1,44.64 C42.24,46.44 40.2,48 37.8,49.02 C35.34,50.1 32.7,50.64 30,50.64 Z" id="Shape" fill="#929292" fill-rule="nonzero"></path>
            <rect id="Rectangle-path" x="0" y="0" width="60" height="60"></rect>
        </g>
    </g>
</svg>