<svg xmlns="http://www.w3.org/2000/svg" width="24.495" height="24.495" viewBox="0 0 24.495 24.495">
  <g id="Bitcoin" transform="translate(-92.078 185.182)">
    <path id="Bitcoin-2" data-name="Bitcoin" d="M10,20a10.043,10.043,0,0,1-2.013-.2A9.947,9.947,0,0,1,4.412,18.29a10.048,10.048,0,0,1-3.625-4.4A9.942,9.942,0,0,1,.2,12.013a10.063,10.063,0,0,1,0-4.027A9.947,9.947,0,0,1,1.71,4.412,10.047,10.047,0,0,1,6.111.787,9.942,9.942,0,0,1,7.987.2a10.063,10.063,0,0,1,4.027,0A9.947,9.947,0,0,1,15.588,1.71a10.047,10.047,0,0,1,3.625,4.4A9.942,9.942,0,0,1,19.8,7.987a10.063,10.063,0,0,1,0,4.027,9.947,9.947,0,0,1-1.506,3.575,10.047,10.047,0,0,1-4.4,3.625,9.942,9.942,0,0,1-1.876.583A10.043,10.043,0,0,1,10,20Zm-.737-5.116h1.032v1.474h.99V14.884h0a4.078,4.078,0,0,0,1.22-.168,2.775,2.775,0,0,0,1.958-2.632,2.288,2.288,0,0,0-1.579-2.337,2.244,2.244,0,0,0,1.2-2.084,2.337,2.337,0,0,0-1.495-2.253,3.557,3.557,0,0,0-1.305-.253V3.663h-.99V5.137H9.263V3.663h-.99V5.137H6.295V6.484h.611a.547.547,0,0,1,.384.155.542.542,0,0,1,.163.392v5.958a.547.547,0,0,1-.155.384.542.542,0,0,1-.392.163H6.295v1.347H8.274v1.474h.99V14.884Zm1.853-1.453H9.305V10.526H11.2a1.387,1.387,0,0,1,1.023.388,1.239,1.239,0,0,1,.28.456,1.634,1.634,0,0,1,.087.587,1.735,1.735,0,0,1-.2.834,1.182,1.182,0,0,1-.579.534A1.789,1.789,0,0,1,11.116,13.432Zm-.084-4.337H9.305V6.547h1.516a1.937,1.937,0,0,1,.842.147,1.215,1.215,0,0,1,.568,1.116,1.35,1.35,0,0,1-.316.926A1.154,1.154,0,0,1,11.032,9.095Z" transform="matrix(0.966, 0.259, -0.259, 0.966, 97.254, -185.182)"/>
  </g>
</svg>
