<?xml version="1.0" encoding="UTF-8"?>
<svg width="60px" height="60px" viewBox="0 0 60 60" version="1.1" xmlns="http://www.w3.org/2000/svg" xmlns:xlink="http://www.w3.org/1999/xlink">
    <!-- Generator: Sketch 49 (51002) - http://www.bohemiancoding.com/sketch -->
    <title>Artboard Copy</title>
    <desc>Created with Sketch.</desc>
    <defs></defs>
    <g id="Artboard-Copy" stroke="none" stroke-width="1" fill="none" fill-rule="evenodd">
        <g id="02_crypto_withdrawal_deposits">
            <g id="Group" transform="translate(9.000000, 9.600000)" fill-rule="nonzero">
                <path d="M39.12,0.36 L14.04,0.36 C13.74,0.36 13.5,0.6 13.5,0.9 C13.5,1.2 13.74,1.44 14.04,1.44 L39.12,1.44 C40.02,1.44 40.8,2.16 40.8,3.12 L40.8,21.36 C40.8,22.26 40.08,23.04 39.12,23.04 L32.76,23.04 L32.76,15.18 L35.4,15.18 C35.7,15.18 35.94,14.94 35.94,14.64 L35.94,10.68 C35.94,10.38 35.7,10.14 35.4,10.14 L32.28,10.14 C32.22,10.14 32.22,10.14 32.16,10.14 L10.2,10.14 C10.14,10.14 10.14,10.14 10.08,10.14 L6.96,10.14 C6.66,10.14 6.42,10.38 6.42,10.68 L6.42,14.64 C6.42,14.94 6.66,15.18 6.96,15.18 L9.66,15.18 L9.66,23.04 L2.94,23.04 C2.04,23.04 1.26,22.32 1.26,21.36 L1.26,15.6 L1.26,3.12 C1.26,2.22 1.98,1.44 2.94,1.44 C3.24,1.44 3.48,1.2 3.48,0.9 C3.48,0.6 3.24,0.36 2.94,0.36 C1.38,0.36 0.18,1.62 0.18,3.12 L0.18,15.6 L0.18,21.36 C0.18,22.92 1.44,24.12 2.94,24.12 L9.66,24.12 L9.66,32.64 C9.66,32.7 9.66,32.7 9.66,32.76 L9.66,35.52 L9.66,38.1 C9.66,39.78 11.04,41.16 12.72,41.16 L29.64,41.16 C31.32,41.16 32.7,39.78 32.7,38.1 L32.7,35.4 C32.7,35.4 32.7,35.4 32.7,35.4 L32.7,33.24 C32.7,33.18 32.7,33.12 32.7,33 L32.7,24.18 L39.06,24.18 C40.62,24.18 41.82,22.92 41.82,21.42 L41.82,3.12 C41.94,1.62 40.68,0.36 39.12,0.36 Z M31.62,11.16 L31.62,32.88 C31.62,32.94 31.62,32.94 31.62,33 L31.62,33.24 C31.5,34.26 30.66,35.04 29.64,35.04 L12.78,35.04 C11.7,35.04 10.8,34.14 10.8,33.06 L10.8,11.22 L31.62,11.22 L31.62,11.16 Z M10.8,35.34 C11.34,35.76 12,36.06 12.78,36.06 L29.7,36.06 C30.42,36.06 31.14,35.82 31.68,35.34 L31.68,35.52 C31.68,36.6 30.78,37.5 29.7,37.5 L12.78,37.5 C11.7,37.5 10.8,36.6 10.8,35.52 L10.8,35.34 Z M34.86,14.04 L32.76,14.04 L32.76,11.16 L34.86,11.16 L34.86,14.04 Z M7.5,14.04 L7.5,11.16 L9.6,11.16 L9.6,14.04 L7.5,14.04 Z M29.7,40.08 L12.78,40.08 C11.7,40.08 10.8,39.18 10.8,38.1 L10.8,37.92 C11.34,38.34 12,38.64 12.78,38.64 L29.7,38.64 C30.42,38.64 31.14,38.4 31.68,37.92 L31.68,38.1 C31.68,39.18 30.78,40.08 29.7,40.08 Z" id="Shape" fill="#929292"></path>
                <path d="M9.54,1.5 L11.76,1.5 C12.06,1.5 12.3,1.26 12.3,0.96 C12.3,0.66 12.06,0.42 11.76,0.42 L9.54,0.42 C9.24,0.42 9,0.66 9,0.96 C9,1.26 9.24,1.5 9.54,1.5 Z" id="Shape" fill="#929292"></path>
                <path d="M19.38,30.48 L20.58,30.48 L20.58,29.4 L21.36,29.4 C21.36,29.4 21.36,29.4 21.42,29.4 L21.42,30.48 L22.62,30.48 L22.62,29.28 C22.74,29.28 22.86,29.22 23.04,29.22 C23.58,29.1 24,28.92 24.36,28.68 C24.72,28.44 25.02,28.14 25.26,27.72 C25.5,27.3 25.56,26.82 25.56,26.22 C25.56,25.74 25.5,25.32 25.32,24.96 C25.14,24.6 25.02,24.36 24.78,24.12 C24.18,23.58 23.58,23.46 23.34,23.46 C23.52,23.46 23.7,23.34 23.94,23.22 C24.18,23.1 24.36,22.92 24.54,22.74 C24.72,22.56 24.9,22.32 25.02,22.02 C25.14,21.72 25.2,21.42 25.2,21.06 C25.2,20.64 25.14,20.28 25.02,19.98 C24.9,19.62 24.66,19.32 24.42,19.08 C24.12,18.84 23.76,18.6 23.34,18.48 C23.1,18.42 22.92,18.36 22.62,18.3 L22.62,16.98 L21.42,16.98 L21.42,18.24 L20.64,18.24 L20.64,16.98 L19.44,16.98 L19.44,18.24 L18,18.24 L18,29.4 L19.38,29.4 L19.38,30.48 Z M23.7,25.2 C23.88,25.44 23.94,25.8 23.94,26.16 C23.94,26.58 23.88,26.94 23.7,27.18 C23.52,27.42 23.34,27.6 23.04,27.72 C22.8,27.84 22.5,27.9 22.2,27.96 C21.9,28.02 21.6,28.02 21.3,28.02 L19.56,28.02 L19.56,24.24 L21.36,24.24 C21.66,24.24 21.96,24.24 22.26,24.3 C22.56,24.36 22.86,24.42 23.1,24.6 C23.28,24.72 23.52,24.96 23.7,25.2 Z M23.4,20.34 C23.52,20.52 23.58,20.82 23.58,21.18 C23.58,21.48 23.52,21.72 23.4,21.96 C23.28,22.2 23.1,22.32 22.92,22.5 C22.74,22.62 22.5,22.74 22.26,22.8 C22.02,22.86 21.78,22.92 21.54,22.92 L19.56,22.92 L19.56,19.62 L21.54,19.62 C21.78,19.62 22.02,19.62 22.26,19.68 C22.5,19.74 22.74,19.8 22.92,19.92 C23.16,19.98 23.28,20.16 23.4,20.34 Z" id="Shape" fill="#3067F0"></path>
            </g>
            <rect id="Rectangle-path" x="0" y="0" width="60" height="60"></rect>
        </g>
    </g>
</svg>