<?xml version="1.0" encoding="UTF-8"?>
<svg width="60px" height="60px" viewBox="0 0 60 60" version="1.1" xmlns="http://www.w3.org/2000/svg" xmlns:xlink="http://www.w3.org/1999/xlink">
    <!-- Generator: Sketch 49 (51002) - http://www.bohemiancoding.com/sketch -->
    <title>Artboard Copy 7</title>
    <desc>Created with Sketch.</desc>
    <defs></defs>
    <g id="Artboard-Copy-7" stroke="none" stroke-width="1" fill="none" fill-rule="evenodd">
        <g id="07_general">
            <path d="M44.34,50.64 L15.66,50.64 C13.92,50.64 12.48,49.14 12.48,47.28 L12.48,41.76 C12.48,41.46 12.72,41.22 13.02,41.22 C13.32,41.22 13.56,41.46 13.56,41.76 L13.56,47.28 C13.56,48.54 14.46,49.56 15.6,49.56 L44.28,49.56 C45.42,49.56 46.32,48.54 46.32,47.28 L46.32,19.86 L38.52,10.92 L15.66,10.92 C14.52,10.92 13.62,11.94 13.62,13.2 L13.62,33.54 C13.62,33.84 13.38,34.08 13.08,34.08 C12.78,34.08 12.54,33.84 12.54,33.54 L12.54,13.2 C12.54,11.34 13.98,9.84 15.72,9.84 L38.82,9.84 C39,9.84 39.12,9.9 39.24,10.02 L47.4,19.26 C47.46,19.38 47.52,19.5 47.52,19.62 L47.52,47.22 C47.52,49.14 46.08,50.64 44.34,50.64 Z" id="Shape" fill="#929292" fill-rule="nonzero"></path>
            <path d="M13.08,38.1 C12.78,38.1 12.54,37.86 12.54,37.56 L12.54,35.46 C12.54,35.16 12.78,34.92 13.08,34.92 C13.38,34.92 13.62,35.16 13.62,35.46 L13.62,37.56 C13.62,37.86 13.38,38.1 13.08,38.1 Z" id="Shape" fill="#929292" fill-rule="nonzero"></path>
            <path d="M38.76,10.56 L38.76,18.42 C38.76,18.42 38.64,19.8 40.2,19.8 L46.92,19.8 L38.76,10.56 Z" id="Shape" fill="#929292" fill-rule="nonzero"></path>
            <g id="Group" transform="translate(22.800000, 22.800000)" fill="#3067F0" fill-rule="nonzero">
                <path d="M8.34,14.4 L6,14.4 C5.7,14.4 5.46,14.16 5.46,13.86 L5.46,12.84 C5.46,12.84 5.46,12.84 5.4,12.84 L4.8,13.68 C4.62,13.92 4.26,13.98 4.02,13.8 L2.16,12.42 C1.92,12.24 1.86,11.88 2.04,11.64 L2.64,10.8 C2.64,10.8 2.64,10.8 2.64,10.8 L1.62,11.1 C1.5,11.16 1.32,11.16 1.2,11.04 C1.08,10.98 0.96,10.86 0.9,10.74 L0.18,8.52 C0.06,8.22 0.24,7.92 0.54,7.8 L1.56,7.44 C1.56,7.44 1.56,7.44 1.56,7.44 L0.54,7.08 C0.24,6.96 0.06,6.66 0.18,6.36 L0.9,4.14 C0.96,4.02 1.02,3.9 1.2,3.84 C1.32,3.78 1.5,3.78 1.62,3.78 L2.64,4.14 C2.64,4.14 2.64,4.14 2.64,4.14 L1.98,3.24 C1.8,3 1.86,2.64 2.1,2.46 L3.96,1.08 C4.2,0.9 4.56,0.96 4.74,1.2 L5.4,2.1 C5.4,2.1 5.4,2.1 5.4,2.1 L5.4,1.02 C5.4,0.72 5.64,0.48 5.94,0.48 L8.28,0.48 C8.58,0.48 8.82,0.72 8.82,1.02 L8.82,2.1 C8.82,2.1 8.82,2.1 8.82,2.1 L9.48,1.2 C9.66,0.96 10.02,0.9 10.26,1.08 L12.12,2.46 C12.36,2.64 12.42,3 12.24,3.24 L11.58,4.14 C11.58,4.14 11.58,4.14 11.58,4.14 L12.6,3.78 C12.72,3.72 12.9,3.72 13.02,3.84 C13.14,3.9 13.26,4.02 13.32,4.14 L14.04,6.36 C14.16,6.66 13.98,6.96 13.68,7.08 L12.66,7.44 C12.66,7.44 12.66,7.44 12.66,7.44 L13.68,7.8 C13.98,7.92 14.16,8.22 14.04,8.52 L13.32,10.74 C13.26,10.86 13.2,10.98 13.02,11.04 C12.9,11.1 12.72,11.1 12.6,11.1 L11.58,10.8 C11.58,10.8 11.58,10.8 11.58,10.8 L12.18,11.64 C12.36,11.88 12.3,12.24 12.06,12.42 L10.38,13.8 C10.14,13.98 9.78,13.92 9.6,13.68 L9,12.84 C9,12.84 9,12.84 8.94,12.84 L8.94,13.86 C8.94,14.16 8.7,14.4 8.34,14.4 Z M6.6,13.32 L7.8,13.32 L7.8,12.42 C7.8,12.18 7.98,11.94 8.22,11.88 C8.46,11.82 8.7,11.76 8.94,11.64 C9.18,11.52 9.48,11.64 9.6,11.82 L10.14,12.54 L11.1,11.82 L10.56,11.1 C10.38,10.92 10.44,10.62 10.56,10.44 C10.74,10.26 10.86,10.08 10.98,9.84 C11.1,9.6 11.4,9.54 11.64,9.6 L12.54,9.9 L12.9,8.76 L12.06,8.4 C11.82,8.34 11.64,8.1 11.7,7.86 C11.7,7.74 11.7,7.62 11.7,7.5 C11.7,7.38 11.7,7.26 11.7,7.08 C11.7,6.84 11.82,6.6 12.06,6.48 L12.96,6.18 L12.6,5.04 L11.7,5.34 C11.46,5.4 11.22,5.34 11.04,5.1 C10.92,4.92 10.74,4.68 10.62,4.5 C10.44,4.32 10.44,4.02 10.62,3.78 L11.16,3 L10.2,2.28 L9.6,3.12 C9.42,3.3 9.18,3.42 8.94,3.3 C8.7,3.18 8.52,3.12 8.28,3.06 C8.04,3 7.86,2.76 7.86,2.52 L7.86,1.56 L6.66,1.56 L6.66,2.52 C6.66,2.76 6.48,3 6.24,3.06 C6,3.12 5.76,3.18 5.58,3.3 C5.34,3.42 5.04,3.3 4.92,3.12 L4.38,2.34 L3.42,3.06 L3.96,3.84 C4.14,4.02 4.08,4.32 3.96,4.56 C3.78,4.74 3.66,4.92 3.54,5.16 C3.42,5.4 3.12,5.46 2.88,5.4 L1.8,5.04 L1.44,6.18 L2.34,6.48 C2.58,6.54 2.76,6.78 2.7,7.08 C2.7,7.2 2.7,7.32 2.7,7.5 C2.7,7.62 2.7,7.74 2.7,7.86 C2.7,8.1 2.58,8.34 2.34,8.4 L1.44,8.7 L1.8,9.84 L2.7,9.54 C2.94,9.48 3.24,9.54 3.36,9.78 C3.48,10.02 3.66,10.2 3.78,10.38 C3.96,10.56 3.96,10.86 3.78,11.04 L3.24,11.76 L4.2,12.48 L4.74,11.76 C4.92,11.58 5.16,11.46 5.4,11.58 C5.64,11.7 5.88,11.76 6.12,11.82 C6.36,11.88 6.54,12.12 6.54,12.36 L6.54,13.32 L6.6,13.32 Z" id="Shape"></path>
                <path d="M7.2,10.56 C5.52,10.56 4.14,9.18 4.14,7.5 C4.14,5.82 5.52,4.44 7.2,4.44 C8.88,4.44 10.26,5.82 10.26,7.5 C10.26,9.18 8.88,10.56 7.2,10.56 Z M7.2,5.46 C6.12,5.46 5.22,6.36 5.22,7.44 C5.22,8.52 6.12,9.42 7.2,9.42 C8.28,9.42 9.18,8.52 9.18,7.44 C9.18,6.36 8.28,5.46 7.2,5.46 Z" id="Shape"></path>
            </g>
            <rect id="Rectangle-path" x="0" y="0" width="60" height="60"></rect>
        </g>
    </g>
</svg>