<?xml version="1.0" encoding="UTF-8"?>
<svg width="60px" height="60px" viewBox="0 0 60 60" version="1.1" xmlns="http://www.w3.org/2000/svg" xmlns:xlink="http://www.w3.org/1999/xlink">
    <!-- Generator: Sketch 49 (51002) - http://www.bohemiancoding.com/sketch -->
    <title>Artboard Copy 6</title>
    <desc>Created with Sketch.</desc>
    <defs></defs>
    <g id="Artboard-Copy-6" stroke="none" stroke-width="1" fill="none" fill-rule="evenodd">
        <g id="08_announcement">
            <path d="M12.9,20.52 C12.78,20.52 12.72,20.52 12.6,20.46 C12.36,20.28 12.24,19.98 12.42,19.68 C12.96,18.84 13.56,18.06 14.16,17.28 C14.34,17.04 14.7,17.04 14.94,17.22 C15.18,17.4 15.18,17.76 15,18 C14.4,18.72 13.86,19.5 13.32,20.28 C13.26,20.4 13.08,20.52 12.9,20.52 Z" id="Shape" fill="#929292" fill-rule="nonzero"></path>
            <path d="M30.12,51.78 C27.3,51.78 24.54,51.24 21.96,50.16 C19.44,49.08 17.22,47.58 15.3,45.66 C13.38,43.74 11.88,41.52 10.8,39 C9.72,36.42 9.18,33.66 9.18,30.84 C9.18,28.62 9.54,26.4 10.2,24.3 C10.32,24 10.62,23.88 10.92,23.94 C11.22,24.06 11.34,24.36 11.28,24.66 C10.62,26.64 10.32,28.74 10.32,30.84 C10.32,36.12 12.36,41.1 16.14,44.88 C19.86,48.6 24.84,50.7 30.18,50.7 C35.46,50.7 40.44,48.66 44.22,44.88 C47.94,41.16 50.04,36.18 50.04,30.84 C50.04,25.5 47.88,20.58 44.16,16.8 C40.44,13.08 35.46,10.98 30.12,10.98 C27.72,10.98 25.38,11.4 23.16,12.24 C21,13.02 19.02,14.22 17.28,15.66 C17.04,15.84 16.68,15.84 16.5,15.6 C16.32,15.36 16.32,15 16.56,14.82 C18.42,13.26 20.52,12.06 22.74,11.16 C25.08,10.26 27.54,9.84 30.06,9.84 C32.88,9.84 35.64,10.38 38.22,11.46 C40.74,12.54 42.96,14.04 44.88,15.96 C46.8,17.88 48.3,20.1 49.38,22.62 C50.46,25.2 51,27.96 51,30.78 C51,33.6 50.46,36.36 49.38,38.94 C48.3,41.46 46.8,43.68 44.88,45.6 C42.96,47.52 40.74,49.02 38.22,50.1 C35.7,51.24 32.94,51.78 30.12,51.78 Z" id="Shape" fill="#929292" fill-rule="nonzero"></path>
            <g id="Group" transform="translate(15.600000, 21.000000)" fill-rule="nonzero">
                <path d="M21.96,17.16 C21.9,17.16 21.84,17.16 21.78,17.1 L13.02,13.98 C12.78,13.92 12.66,13.68 12.66,13.44 L12.66,4.08 C12.66,3.84 12.78,3.66 13.02,3.54 L21.78,0.42 C21.96,0.36 22.14,0.36 22.26,0.48 C22.38,0.6 22.5,0.78 22.5,0.96 L22.5,16.62 C22.5,16.8 22.44,16.98 22.26,17.1 C22.2,17.1 22.08,17.16 21.96,17.16 Z M13.74,13.08 L21.36,15.84 L21.36,1.74 L13.74,4.5 L13.74,13.08 Z" id="Shape" fill="#929292"></path>
                <path d="M13.2,13.92 L3.48,13.92 C1.62,13.92 0.12,12.42 0.12,10.56 L0.12,6.78 C0.12,4.92 1.62,3.42 3.48,3.42 L13.2,3.42 C13.5,3.42 13.74,3.66 13.74,3.96 L13.74,13.26 C13.74,13.38 13.68,13.56 13.56,13.68 C13.5,13.86 13.38,13.92 13.2,13.92 Z M3.48,4.62 C2.28,4.62 1.26,5.64 1.26,6.84 L1.26,10.62 C1.26,11.82 2.28,12.84 3.48,12.84 L12.66,12.84 L12.66,4.62 L3.48,4.62 Z" id="Shape" fill="#929292"></path>
                <path d="M10.8,20.7 L7.2,20.7 C6.96,20.7 6.78,20.58 6.66,20.34 L4.38,13.74 C4.32,13.56 4.32,13.38 4.44,13.26 C4.56,13.14 4.74,13.02 4.92,13.02 L8.52,13.02 C8.76,13.02 8.94,13.14 9.06,13.38 L11.34,19.98 C11.4,20.16 11.4,20.34 11.28,20.46 C11.16,20.58 10.98,20.7 10.8,20.7 Z M7.62,19.56 L10.02,19.56 L8.1,14.04 L5.7,14.04 L7.62,19.56 Z" id="Shape" fill="#929292"></path>
                <g transform="translate(23.400000, 1.800000)" fill="#3067F0" id="Shape">
                    <path d="M1.32,4.32 C1.08,4.32 0.9,4.26 0.72,4.08 C0.42,3.78 0.42,3.24 0.72,2.88 L3.12,0.48 C3.42,0.18 3.96,0.18 4.32,0.48 C4.62,0.78 4.62,1.32 4.32,1.68 L1.92,4.08 C1.74,4.26 1.56,4.32 1.32,4.32 Z"></path>
                    <path d="M3.72,13.62 C3.48,13.62 3.3,13.56 3.12,13.38 L0.72,10.98 C0.42,10.68 0.42,10.14 0.72,9.78 C1.02,9.48 1.56,9.48 1.92,9.78 L4.32,12.18 C4.62,12.48 4.62,13.02 4.32,13.38 C4.14,13.56 3.96,13.62 3.72,13.62 Z"></path>
                    <path d="M4.92,7.74 L1.32,7.74 C0.84,7.74 0.48,7.38 0.48,6.9 C0.48,6.42 0.84,6.06 1.32,6.06 L4.92,6.06 C5.4,6.06 5.76,6.42 5.76,6.9 C5.76,7.38 5.4,7.74 4.92,7.74 Z"></path>
                </g>
                <path d="M13.2,11.52 L3.54,11.52 C3.24,11.52 3,11.28 3,10.98 L3,6.48 C3,6.18 3.24,5.94 3.54,5.94 L13.2,5.94 C13.5,5.94 13.74,6.18 13.74,6.48 L13.74,10.98 C13.74,11.28 13.5,11.52 13.2,11.52 Z M4.08,10.44 L12.6,10.44 L12.6,7.08 L4.08,7.08 L4.08,10.44 Z" id="Shape" fill="#929292"></path>
            </g>
            <rect id="Rectangle-path" x="0" y="0" width="60" height="60"></rect>
        </g>
    </g>
</svg>