<?xml version="1.0" encoding="UTF-8"?>
<svg width="60px" height="60px" viewBox="0 0 60 60" version="1.1" xmlns="http://www.w3.org/2000/svg" xmlns:xlink="http://www.w3.org/1999/xlink">
    <!-- Generator: Sketch 49 (51002) - http://www.bohemiancoding.com/sketch -->
    <title>Artboard Copy 5</title>
    <desc>Created with Sketch.</desc>
    <defs></defs>
    <g id="Artboard-Copy-5" stroke="none" stroke-width="1" fill="none" fill-rule="evenodd">
        <g id="06_security">
            <g id="Group" transform="translate(12.600000, 13.200000)" fill="#929292" fill-rule="nonzero">
                <path d="M25.8,3.54 C23.28,1.92 20.34,1.08 17.4,1.08 C14.46,1.08 11.58,1.92 9.06,3.48 L8.46,2.52 C11.1,0.84 14.22,-3.55271368e-15 17.34,-3.55271368e-15 C20.52,-3.55271368e-15 23.64,0.9 26.34,2.64 L25.8,3.54 Z" id="Shape"></path>
                <path d="M31.86,25.26 L30.9,24.72 C32.28,22.32 33.06,19.56 33.06,16.8 C33.06,14.22 32.4,11.64 31.2,9.42 L32.16,8.88 C33.48,11.28 34.14,14.04 34.14,16.8 C34.2,19.8 33.36,22.74 31.86,25.26 Z" id="Shape"></path>
                <path d="M17.34,33.66 C14.16,33.66 11.1,32.76 8.4,31.08 L9,30.12 C11.52,31.68 14.4,32.52 17.34,32.52 C20.28,32.52 23.22,31.68 25.68,30.12 L26.28,31.08 C23.64,32.76 20.52,33.66 17.34,33.66 Z" id="Shape"></path>
                <path d="M2.82,25.32 C1.32,22.74 0.54,19.8 0.54,16.8 C0.54,13.92 1.26,11.1 2.64,8.64 L3.6,9.18 C2.34,11.52 1.62,14.1 1.62,16.8 C1.62,19.62 2.34,22.38 3.78,24.78 L2.82,25.32 Z" id="Shape"></path>
            </g>
            <path d="M30,37.62 L29.7,37.44 C25.92,35.28 24.24,32.46 23.46,30.54 C22.62,28.44 22.74,26.82 22.74,26.76 L22.74,26.4 L23.1,26.28 C24.42,25.8 28.08,24.3 29.1,23.22 L29.28,23.04 L30.42,23.04 L30.6,23.22 C31.56,24.36 35.4,25.74 36.78,26.22 L37.14,26.34 L37.14,26.76 C37.14,29.58 35.94,32.34 33.72,34.74 C32.04,36.54 30.36,37.5 30.3,37.56 L30,37.62 Z M23.88,27.18 C23.88,27.72 24,28.86 24.54,30.24 C25.5,32.7 27.36,34.8 30,36.36 C30.54,36 31.74,35.16 32.94,33.9 C34.92,31.8 35.94,29.52 36.06,27.12 C34.8,26.7 31.32,25.44 30,24.12 L29.82,24.12 C28.44,25.38 25.08,26.76 23.88,27.18 Z" id="Shape" fill="#3067F0" fill-rule="nonzero"></path>
            <g id="Group" transform="translate(37.800000, 37.800000)" fill="#929292" fill-rule="nonzero">
                <path d="M6.78,12.84 C3.24,12.84 0.36,9.96 0.36,6.42 C0.36,2.88 3.24,0 6.78,0 C10.32,0 13.2,2.88 13.2,6.42 C13.2,9.96 10.32,12.84 6.78,12.84 Z M6.78,1.08 C3.84,1.08 1.44,3.48 1.44,6.42 C1.44,9.36 3.84,11.76 6.78,11.76 C9.72,11.76 12.12,9.36 12.12,6.42 C12.06,3.48 9.72,1.08 6.78,1.08 Z" id="Shape"></path>
                <path d="M2.82,10.92 C2.76,10.92 2.64,10.92 2.58,10.86 C2.28,10.74 2.22,10.38 2.34,10.14 C2.4,10.08 3.36,8.1 6.06,8.1 L6.84,8.1 C7.14,8.1 7.38,8.34 7.38,8.64 C7.38,8.94 7.14,9.18 6.84,9.18 L6,9.18 C4.08,9.18 3.36,10.56 3.3,10.62 C3.24,10.8 3.06,10.92 2.82,10.92 Z" id="Shape"></path>
                <path d="M10.74,10.92 C10.56,10.92 10.32,10.8 10.26,10.62 C10.2,10.56 9.48,9.18 7.56,9.18 L6.78,9.18 C6.48,9.18 6.24,8.94 6.24,8.64 C6.24,8.34 6.48,8.1 6.78,8.1 L7.56,8.1 C10.2,8.1 11.22,10.08 11.28,10.14 C11.4,10.44 11.28,10.74 11.04,10.86 C10.92,10.92 10.8,10.92 10.74,10.92 Z" id="Shape"></path>
                <path d="M6.78,7.74 C5.28,7.74 4.02,6.48 4.02,4.98 C4.02,3.48 5.28,2.22 6.78,2.22 C8.28,2.22 9.54,3.48 9.54,4.98 C9.54,6.48 8.28,7.74 6.78,7.74 Z M6.78,3.3 C5.88,3.3 5.16,4.02 5.16,4.92 C5.16,5.82 5.88,6.54 6.78,6.54 C7.68,6.54 8.4,5.82 8.4,4.92 C8.4,4.08 7.68,3.3 6.78,3.3 Z" id="Shape"></path>
            </g>
            <g id="Group" transform="translate(37.800000, 9.600000)" fill="#929292" fill-rule="nonzero">
                <path d="M6.78,13.26 C3.24,13.26 0.36,10.38 0.36,6.84 C0.36,3.3 3.24,0.42 6.78,0.42 C10.32,0.42 13.2,3.3 13.2,6.84 C13.2,10.38 10.32,13.26 6.78,13.26 Z M6.78,1.5 C3.84,1.5 1.44,3.9 1.44,6.84 C1.44,9.78 3.84,12.18 6.78,12.18 C9.72,12.18 12.12,9.78 12.12,6.84 C12.12,3.9 9.72,1.5 6.78,1.5 Z" id="Shape"></path>
                <path d="M2.82,11.34 C2.76,11.34 2.64,11.34 2.58,11.28 C2.28,11.16 2.22,10.8 2.34,10.56 C2.4,10.5 3.36,8.52 6.06,8.52 L6.84,8.52 C7.14,8.52 7.38,8.76 7.38,9.06 C7.38,9.36 7.14,9.6 6.84,9.6 L6,9.6 C4.08,9.6 3.36,10.98 3.3,11.04 C3.24,11.22 3.06,11.34 2.82,11.34 Z" id="Shape"></path>
                <path d="M10.74,11.34 C10.56,11.34 10.32,11.22 10.26,11.04 C10.2,10.98 9.48,9.6 7.56,9.6 L6.78,9.6 C6.48,9.6 6.24,9.36 6.24,9.06 C6.24,8.76 6.48,8.52 6.78,8.52 L7.56,8.52 C10.2,8.52 11.22,10.5 11.28,10.56 C11.4,10.86 11.28,11.16 11.04,11.28 C10.92,11.34 10.8,11.34 10.74,11.34 Z" id="Shape"></path>
                <path d="M6.78,8.16 C5.28,8.16 4.02,6.9 4.02,5.4 C4.02,3.9 5.28,2.64 6.78,2.64 C8.28,2.64 9.54,3.9 9.54,5.4 C9.54,6.9 8.28,8.16 6.78,8.16 Z M6.78,3.72 C5.88,3.72 5.16,4.44 5.16,5.34 C5.16,6.24 5.88,6.96 6.78,6.96 C7.68,6.96 8.4,6.24 8.4,5.34 C8.4,4.44 7.68,3.72 6.78,3.72 Z" id="Shape"></path>
            </g>
            <g id="Group" transform="translate(9.000000, 9.600000)" fill="#929292" fill-rule="nonzero">
                <path d="M6.42,13.26 C2.88,13.26 0,10.38 0,6.84 C0,3.3 2.88,0.42 6.42,0.42 C9.96,0.42 12.84,3.3 12.84,6.84 C12.84,10.38 10.02,13.26 6.42,13.26 Z M6.42,1.5 C3.48,1.5 1.08,3.9 1.08,6.84 C1.08,9.78 3.48,12.18 6.42,12.18 C9.36,12.18 11.76,9.78 11.76,6.84 C11.76,3.9 9.36,1.5 6.42,1.5 Z" id="Shape"></path>
                <path d="M2.52,11.34 C2.46,11.34 2.34,11.34 2.28,11.28 C1.98,11.16 1.92,10.8 2.04,10.56 C2.1,10.5 3.06,8.52 5.76,8.52 L6.54,8.52 C6.84,8.52 7.08,8.76 7.08,9.06 C7.08,9.36 6.84,9.6 6.54,9.6 L5.76,9.6 C3.78,9.6 3.06,11.04 3.06,11.04 C2.94,11.22 2.7,11.34 2.52,11.34 Z" id="Shape"></path>
                <path d="M10.44,11.34 C10.26,11.34 10.02,11.22 9.96,11.04 C9.9,10.98 9.18,9.6 7.26,9.6 L6.48,9.6 C6.18,9.6 5.94,9.36 5.94,9.06 C5.94,8.76 6.18,8.52 6.48,8.52 L7.26,8.52 C9.9,8.52 10.92,10.5 10.98,10.56 C11.1,10.86 10.98,11.16 10.74,11.28 C10.62,11.34 10.5,11.34 10.44,11.34 Z" id="Shape"></path>
                <path d="M6.48,8.16 C4.98,8.16 3.72,6.9 3.72,5.4 C3.72,3.9 4.98,2.64 6.48,2.64 C7.98,2.64 9.24,3.9 9.24,5.4 C9.24,6.9 7.98,8.16 6.48,8.16 Z M6.48,3.72 C5.58,3.72 4.86,4.44 4.86,5.34 C4.86,6.24 5.58,6.96 6.48,6.96 C7.38,6.96 8.1,6.24 8.1,5.34 C8.1,4.44 7.38,3.72 6.48,3.72 Z" id="Shape"></path>
            </g>
            <g id="Group" transform="translate(9.000000, 37.800000)" fill="#929292" fill-rule="nonzero">
                <path d="M6.42,12.9 C2.88,12.9 0,10.02 0,6.48 C0,2.94 2.88,0.06 6.42,0.06 C9.96,0.06 12.84,2.94 12.84,6.48 C12.9,10.02 10.02,12.9 6.42,12.9 Z M6.42,1.14 C3.48,1.14 1.08,3.54 1.08,6.48 C1.08,9.42 3.48,11.82 6.42,11.82 C9.36,11.82 11.76,9.42 11.76,6.48 C11.76,3.54 9.36,1.14 6.42,1.14 Z" id="Shape"></path>
                <path d="M2.52,10.98 C2.46,10.98 2.34,10.98 2.28,10.92 C1.98,10.8 1.92,10.44 2.04,10.2 C2.1,10.14 3.06,8.16 5.76,8.16 L6.54,8.16 C6.84,8.16 7.08,8.4 7.08,8.7 C7.08,9 6.84,9.24 6.54,9.24 L5.76,9.24 C3.78,9.24 3.06,10.68 3.06,10.68 C2.94,10.86 2.7,10.98 2.52,10.98 Z" id="Shape"></path>
                <path d="M10.44,10.98 C10.26,10.98 10.02,10.86 9.96,10.68 C9.9,10.62 9.18,9.24 7.26,9.24 L6.48,9.24 C6.18,9.24 5.94,9 5.94,8.7 C5.94,8.4 6.18,8.16 6.48,8.16 L7.26,8.16 C9.9,8.16 10.92,10.14 10.98,10.2 C11.1,10.5 10.98,10.8 10.74,10.92 C10.62,10.98 10.5,10.98 10.44,10.98 Z" id="Shape"></path>
                <path d="M6.48,7.8 C4.98,7.8 3.72,6.54 3.72,5.04 C3.72,3.54 4.98,2.28 6.48,2.28 C7.98,2.28 9.24,3.54 9.24,5.04 C9.24,6.54 7.98,7.8 6.48,7.8 Z M6.48,3.36 C5.58,3.36 4.86,4.08 4.86,4.98 C4.86,5.88 5.58,6.6 6.48,6.6 C7.38,6.6 8.1,5.88 8.1,4.98 C8.1,4.08 7.38,3.36 6.48,3.36 Z" id="Shape"></path>
            </g>
            <rect id="Rectangle-path" x="0" y="0" width="60" height="60"></rect>
        </g>
    </g>
</svg>