<?xml version="1.0" encoding="UTF-8"?>
<svg width="30px" height="30px" viewBox="0 0 30 30" version="1.1" xmlns="http://www.w3.org/2000/svg" xmlns:xlink="http://www.w3.org/1999/xlink">
    <title>3</title>
    <g id="现货优化" stroke="none" stroke-width="1" fill="none" fill-rule="evenodd">
        <g id="Web现货颜色/icon" transform="translate(-138.000000, -427.000000)">
            <g id="3" transform="translate(138.000000, 427.000000)">
                <rect id="矩形" stroke="#242A44" stroke-width="0.5" fill="#1F222B" x="0.25" y="0.25" width="29.5" height="29.5" rx="2"></rect>
                <path d="M20.6948147,11.1109828 L9.11676066,11.1109828 C8.59477856,11.1109828 8.1718733,10.683065 8.1718733,10.1552788 C8.1718733,9.62749266 8.59480256,9.19957479 9.11676066,9.19957479 L20.6948147,9.19957479 C21.2167729,9.19957479 21.6396781,9.62749266 21.6396781,10.1552788 C21.6396781,10.683041 21.2167729,11.1109828 20.6948147,11.1109828 Z" id="路径" fill="#FE535B" fill-rule="nonzero"></path>
                <path d="M14.0854479,20.0309191 L14.0854479,20.0309191 L9.11676066,20.0305834 C8.59477856,20.0305834 8.1718733,19.6026655 8.1718733,19.0748794 C8.1718733,18.5470692 8.59511433,18.1191753 9.11676066,18.1191753 L9.11676066,18.1191753 L14.0854479,18.1194871 C14.607406,18.1194871 15.0303352,18.547405 15.0303352,19.0751911 C15.0303352,19.6029773 14.6071182,20.0309191 14.0854479,20.0309191 Z" id="路径" fill="#FE535B" fill-rule="nonzero"></path>
                <path d="M20.6948147,15.570927 L9.11676066,15.570927 C8.59477856,15.570927 8.1718733,15.1430091 8.1718733,14.615223 C8.1718733,14.0874368 8.59480256,13.659519 9.11676066,13.659519 L20.6948147,13.659519 C21.2167729,13.659519 21.6396781,14.0874368 21.6396781,14.615223 C21.6396781,15.1430091 21.2167729,15.570927 20.6948147,15.570927 Z" id="路径" fill="#FE535B" fill-rule="nonzero"></path>
                <path d="M19.5213623,24.9053023 L18.4885026,24.9053023 C17.9665205,24.9053023 17.5436153,24.4773604 17.5436153,23.9495743 C17.5436153,23.4217641 17.9665445,22.9938703 18.4885026,22.9938703 L19.4644729,22.9938703 C20.281407,22.7221105 23.091174,19.8655513 23.409822,18.9852761 L23.409822,9.08694715 C23.409822,7.62089313 22.2305655,6.42825375 20.7812282,6.42825375 L9.03032327,6.42825373 C7.58081803,6.42825373 6.40170548,7.62086913 6.40170548,9.08694712 L6.40170548,20.3345532 C6.40170548,21.800967 7.58081805,22.9938942 9.03032327,22.9938942 L14.0389914,22.9938942 C14.5609735,22.9938942 14.9838788,23.4217881 14.9838788,23.9495982 C14.9838788,24.4773844 14.5609735,24.9053023 14.0389914,24.9053023 L9.03032327,24.9053023 C6.53889246,24.9053023 4.51190677,22.8548365 4.51190677,20.3345772 L4.51190677,9.08694715 C4.51190677,6.56702365 6.53889246,4.51684568 9.03032327,4.51684568 L20.7812282,4.51684568 C23.272635,4.51684568 25.2996207,6.56699967 25.2996207,9.08694715 L25.2996207,19.0602732 C25.2996207,19.7989964 24.5266488,20.9659492 23.0022903,22.5286097 C21.4640452,24.1055885 20.2927753,24.9053023 19.5213623,24.9053023 Z" id="路径" fill="#40486D" fill-rule="nonzero"></path>
                <path d="M18.4128339,24.7973275 C17.8908518,24.7973275 17.4679466,24.3694096 17.4679466,23.8416235 L17.4679466,21.2180902 C17.4679466,18.9344306 19.3048132,17.0766741 21.5624985,17.0766741 L23.8410736,17.0766741 C24.3630557,17.0766741 24.7859609,17.504592 24.7859609,18.0323781 C24.7859609,18.5601883 24.3630317,18.9881062 23.8410736,18.9881062 L21.5624985,18.9881062 C20.3469066,18.9881062 19.3577453,19.9884439 19.3577453,21.2180902 L19.3577453,23.8416235 C19.3577453,24.3694096 18.934792,24.7973275 18.4128339,24.7973275 Z" id="路径" fill="#40486D" fill-rule="nonzero"></path>
            </g>
        </g>
    </g>
</svg>