<svg id="Tether" xmlns="http://www.w3.org/2000/svg" width="20" height="20" viewBox="0 0 20 20">
  <path id="Fill_1" data-name="Fill 1" d="M10,0A10,10,0,1,1,0,10,10,10,0,0,1,10,0"/>
  <path id="Fill_3" data-name="Fill 3" d="M6.523,13.026h-2.2V7.474a11.864,11.864,0,0,1-3.089-.545,3.181,3.181,0,0,1-.909-.463A.723.723,0,0,1,0,5.923a.723.723,0,0,1,.329-.544,3.178,3.178,0,0,1,.908-.462,11.85,11.85,0,0,1,3.089-.544V2.641H1.288V0H9.561V2.641H6.522V4.374h0a11.824,11.824,0,0,1,3.083.544,3.171,3.171,0,0,1,.907.462.723.723,0,0,1,.328.543.723.723,0,0,1-.328.543,3.171,3.171,0,0,1-.907.462,11.824,11.824,0,0,1-3.083.544ZM4.327,7h0c.075.005.48.031,1.106.031.652,0,.979-.021,1.09-.03h0a11.826,11.826,0,0,0,2.717-.433,2.951,2.951,0,0,0,.8-.36.552.552,0,0,0,.288-.421.552.552,0,0,0-.288-.421,2.949,2.949,0,0,0-.8-.36,11.83,11.83,0,0,0-2.718-.433V6.51a9.9,9.9,0,0,1-1.081.044c-.563,0-.968-.031-1.116-.044V4.575A11.88,11.88,0,0,0,1.6,5.007a2.953,2.953,0,0,0-.8.36.553.553,0,0,0-.289.422.553.553,0,0,0,.289.422,2.952,2.952,0,0,0,.8.36A11.861,11.861,0,0,0,4.327,7V7Z" transform="translate(4.58 3.885)" fill="#fff"/>
</svg>
