<?xml version="1.0" encoding="UTF-8"?>
<svg width="60px" height="60px" viewBox="0 0 60 60" version="1.1" xmlns="http://www.w3.org/2000/svg" xmlns:xlink="http://www.w3.org/1999/xlink">
    <!-- Generator: Sketch 49 (51002) - http://www.bohemiancoding.com/sketch -->
    <title>Artboard Copy 4</title>
    <desc>Created with Sketch.</desc>
    <defs></defs>
    <g id="Artboard-Copy-4" stroke="none" stroke-width="1" fill="none" fill-rule="evenodd">
        <g id="05_trading">
            <path d="M29.94,47.58 C28.26,47.58 26.58,47.34 25.02,46.86 C24.72,46.8 24.54,46.44 24.66,46.14 C24.72,45.84 25.08,45.66 25.38,45.78 C26.88,46.2 28.44,46.44 30,46.44 C34.32,46.44 38.46,44.76 41.52,41.7 C44.58,38.64 46.26,34.56 46.26,30.18 C46.26,28.98 46.14,27.78 45.9,26.64 C45.84,26.34 46.02,26.04 46.32,25.98 C46.62,25.92 46.92,26.1 46.98,26.4 C47.28,27.6 47.4,28.92 47.4,30.18 C47.4,34.8 45.6,39.18 42.3,42.48 C38.94,45.72 34.56,47.58 29.94,47.58 Z" id="Shape" fill="#929292" fill-rule="nonzero"></path>
            <path d="M13.68,35.16 C13.44,35.16 13.2,34.98 13.14,34.74 C12.72,33.24 12.54,31.74 12.54,30.18 C12.54,25.56 14.34,21.18 17.64,17.88 C20.94,14.58 25.32,12.78 29.94,12.78 C31.8,12.78 33.6,13.08 35.34,13.62 C35.64,13.74 35.82,14.04 35.7,14.34 C35.58,14.64 35.28,14.82 34.98,14.7 C33.36,14.16 31.62,13.92 29.88,13.92 C25.56,13.92 21.42,15.6 18.36,18.66 C15.3,21.72 13.62,25.8 13.62,30.18 C13.62,31.62 13.8,33.06 14.16,34.44 C14.22,34.74 14.04,35.04 13.74,35.1 C13.8,35.16 13.74,35.16 13.68,35.16 Z" id="Shape" fill="#929292" fill-rule="nonzero"></path>
            <path d="M42.48,27.72 C37.44,27.72 33.36,23.64 33.36,18.6 C33.36,13.56 37.44,9.48 42.48,9.48 C47.52,9.48 51.6,13.56 51.6,18.6 C51.6,23.64 47.52,27.72 42.48,27.72 Z M42.48,10.62 C38.04,10.62 34.5,14.22 34.5,18.6 C34.5,22.98 38.1,26.58 42.48,26.58 C46.86,26.58 50.46,22.98 50.46,18.6 C50.46,14.22 46.92,10.62 42.48,10.62 Z" id="Shape" fill="#929292" fill-rule="nonzero"></path>
            <path d="M17.64,51.3 C12.6,51.3 8.52,47.22 8.52,42.18 C8.52,37.14 12.6,33.06 17.64,33.06 C22.68,33.06 26.76,37.14 26.76,42.18 C26.76,47.22 22.68,51.3 17.64,51.3 Z M17.64,34.14 C13.2,34.14 9.66,37.74 9.66,42.12 C9.66,46.5 13.26,50.1 17.64,50.1 C22.02,50.1 25.62,46.5 25.62,42.12 C25.62,37.74 22.08,34.14 17.64,34.14 Z" id="Shape" fill="#929292" fill-rule="nonzero"></path>
            <path d="M16.14,47.1 L17.04,47.1 L17.04,46.32 L17.58,46.32 C17.58,46.32 17.58,46.32 17.58,46.32 L17.58,47.1 L18.48,47.1 L18.48,46.26 C18.6,46.26 18.66,46.2 18.78,46.2 C19.14,46.14 19.5,46.02 19.74,45.84 C20.04,45.66 20.22,45.42 20.4,45.12 C20.58,44.82 20.64,44.46 20.64,44.04 C20.64,43.68 20.58,43.38 20.46,43.14 C20.34,42.9 20.28,42.72 20.1,42.54 C19.62,42.12 19.2,42 19.02,42 C19.14,42 19.32,41.94 19.44,41.82 C19.62,41.76 19.74,41.64 19.86,41.46 C19.98,41.34 20.1,41.16 20.22,40.92 C20.34,40.68 20.34,40.5 20.34,40.2 C20.34,39.9 20.28,39.66 20.16,39.42 C20.04,39.18 19.92,38.94 19.68,38.76 C19.5,38.58 19.2,38.4 18.9,38.34 C18.72,38.28 18.6,38.22 18.42,38.22 L18.42,37.2 L17.52,37.2 L17.52,38.1 L16.92,38.1 L16.92,37.2 L16.02,37.2 L16.02,38.1 L15,38.1 L15,46.26 L16.02,46.26 L16.02,47.1 L16.14,47.1 Z M19.26,43.26 C19.38,43.44 19.44,43.68 19.44,43.98 C19.44,44.28 19.38,44.52 19.26,44.7 C19.14,44.88 18.96,45 18.78,45.12 C18.6,45.18 18.36,45.24 18.18,45.3 C17.94,45.3 17.76,45.36 17.52,45.36 L16.26,45.36 L16.26,42.6 L17.58,42.6 C17.76,42.6 18,42.6 18.24,42.66 C18.48,42.72 18.66,42.78 18.84,42.9 C19.02,42.9 19.2,43.08 19.26,43.26 Z M19.08,39.72 C19.14,39.9 19.2,40.08 19.2,40.32 C19.2,40.56 19.14,40.74 19.08,40.86 C19.02,41.04 18.9,41.16 18.72,41.22 C18.6,41.34 18.42,41.4 18.24,41.46 C18.06,41.52 17.88,41.52 17.7,41.52 L16.26,41.52 L16.26,39.12 L17.7,39.12 C17.88,39.12 18.06,39.12 18.24,39.18 C18.42,39.18 18.6,39.24 18.72,39.36 C18.9,39.48 19.02,39.6 19.08,39.72 Z" id="Shape" fill="#3067F0" fill-rule="nonzero"></path>
            <g id="Group" transform="translate(40.200000, 14.182680)" fill="#3067F0" fill-rule="nonzero">
                <g id="Shape">
                    <path d="M0.54,0.54 L0.18,1.2 L1.2,1.2 C1.8,1.2 2.4,1.5 2.7,1.98 C2.82,2.16 2.88,2.4 2.94,2.58 L0.54,2.58 L0.18,3.24 L2.82,3.24 C2.76,3.3 2.76,3.42 2.7,3.48 C2.4,3.96 1.86,4.26 1.26,4.26 L0.18,4.26 L0.18,4.92 C1.02,6.12 1.86,7.44 2.64,8.64 L3.42,8.64 L0.96,4.92 C2.22,4.92 2.88,4.44 3.24,3.84 C3.36,3.66 3.42,3.42 3.48,3.24 L4.2,3.24 L4.56,2.58 L3.6,2.58 C3.6,2.22 3.48,1.92 3.3,1.62 C3.18,1.5 3.12,1.32 3,1.26 L4.32,1.26 L4.68,0.6 L0.54,0.6 L0.54,0.54 Z"></path>
                    <path d="M3.6,8.82 L2.64,8.82 L2.64,8.76 C2.46,8.46 2.22,8.16 2.04,7.8 C1.44,6.9 0.78,5.94 0.18,4.98 L0.18,4.2 L1.32,4.2 C1.32,4.2 1.32,4.2 1.38,4.2 C1.92,4.2 2.46,3.9 2.7,3.48 C2.7,3.42 2.76,3.42 2.76,3.36 L0.12,3.36 L0.54,2.52 L2.88,2.52 C2.82,2.34 2.76,2.16 2.7,2.04 C2.4,1.56 1.86,1.32 1.32,1.32 L0.18,1.32 L0.6,0.48 L4.86,0.48 L4.44,1.32 L3.24,1.32 C3.3,1.38 3.36,1.5 3.42,1.56 C3.6,1.86 3.72,2.16 3.72,2.52 L4.8,2.52 L4.38,3.36 L3.6,3.36 C3.54,3.54 3.48,3.78 3.36,3.9 C2.88,4.62 2.22,4.98 1.14,5.04 L3.6,8.82 Z M2.7,8.64 L3.3,8.64 L0.84,4.92 L1.02,4.92 C2.1,4.92 2.82,4.56 3.24,3.84 C3.36,3.66 3.42,3.48 3.48,3.24 L3.48,3.18 L4.26,3.18 L4.5,2.64 L3.54,2.64 L3.54,2.58 C3.54,2.22 3.42,1.92 3.24,1.62 C3.18,1.5 3.06,1.38 2.94,1.26 L2.82,1.14 L4.32,1.14 L4.56,0.6 L0.6,0.6 L0.36,1.14 L1.2,1.14 C1.8,1.14 2.46,1.44 2.76,1.92 C2.88,2.1 2.94,2.34 3,2.58 L3,2.7 L0.6,2.7 L0.36,3.24 L3,3.24 L2.94,3.36 C2.88,3.48 2.88,3.54 2.82,3.6 C2.52,4.14 1.92,4.44 1.32,4.38 L0.36,4.38 L0.36,4.98 C0.96,5.88 1.62,6.84 2.22,7.74 C2.34,8.04 2.52,8.34 2.7,8.64 Z"></path>
                </g>
            </g>
            <path d="M19.26,32.34 C18.96,32.34 18.72,32.16 18.72,31.86 C18.66,31.44 18.66,30.96 18.66,30.54 C18.66,30 18.72,29.52 18.78,28.98 C18.84,28.68 19.08,28.44 19.38,28.5 C19.68,28.56 19.92,28.8 19.86,29.1 C19.8,29.58 19.74,30.06 19.74,30.48 C19.74,30.9 19.74,31.32 19.8,31.68 C19.86,31.98 19.62,32.28 19.32,32.28 C19.26,32.34 19.26,32.34 19.26,32.34 Z" id="Shape" fill="#929292" fill-rule="nonzero"></path>
            <path d="M19.98,26.94 C19.92,26.94 19.86,26.94 19.74,26.88 C19.44,26.76 19.32,26.46 19.44,26.16 C19.68,25.62 19.92,25.14 20.22,24.6 C20.4,24.36 20.7,24.24 21,24.42 C21.24,24.6 21.36,24.9 21.18,25.2 C20.88,25.62 20.64,26.1 20.46,26.58 C20.4,26.82 20.22,26.94 19.98,26.94 Z" id="Shape" fill="#929292" fill-rule="nonzero"></path>
            <path d="M22.38,23.46 C22.26,23.46 22.08,23.4 21.96,23.28 C21.72,23.04 21.72,22.68 21.96,22.5 C24.06,20.46 26.82,19.32 29.76,19.32 C31.38,19.32 33,19.68 34.44,20.34 C34.74,20.46 34.86,20.82 34.68,21.06 C34.56,21.36 34.2,21.48 33.96,21.3 C32.64,20.7 31.2,20.34 29.7,20.34 C27.06,20.34 24.54,21.36 22.68,23.22 C22.62,23.4 22.5,23.46 22.38,23.46 Z" id="Shape" fill="#929292" fill-rule="nonzero"></path>
            <path d="M40.32,32.22 C40.32,32.22 40.26,32.22 40.26,32.22 C39.96,32.16 39.72,31.92 39.78,31.62 C39.84,31.26 39.84,30.9 39.84,30.54 C39.84,30.18 39.84,29.82 39.78,29.46 C39.72,29.16 39.96,28.86 40.26,28.86 C40.56,28.8 40.86,29.04 40.86,29.34 C40.92,29.76 40.92,30.12 40.92,30.54 C40.92,30.96 40.92,31.32 40.86,31.74 C40.86,31.98 40.62,32.22 40.32,32.22 Z" id="Shape" fill="#929292" fill-rule="nonzero"></path>
            <path d="M34.08,40.74 C33.84,40.74 33.66,40.62 33.6,40.38 C33.48,40.08 33.6,39.78 33.9,39.66 C36.48,38.52 38.46,36.3 39.36,33.66 C39.48,33.36 39.78,33.24 40.08,33.3 C40.38,33.42 40.5,33.72 40.44,34.02 C39.42,37.02 37.26,39.42 34.38,40.74 C34.2,40.74 34.14,40.74 34.08,40.74 Z" id="Shape" fill="#929292" fill-rule="nonzero"></path>
            <path d="M29.76,41.64 C29.46,41.64 29.16,41.64 28.86,41.58 C28.56,41.58 28.32,41.28 28.32,40.98 C28.32,40.68 28.62,40.44 28.92,40.44 C29.7,40.5 30.48,40.5 31.26,40.38 C31.56,40.32 31.86,40.56 31.92,40.86 C31.98,41.16 31.74,41.46 31.44,41.52 C30.96,41.64 30.36,41.64 29.76,41.64 Z" id="Shape" fill="#929292" fill-rule="nonzero"></path>
            <path d="M28.92,41.64 C28.92,41.64 28.92,41.64 28.92,41.64 C27.84,41.58 26.82,41.34 25.8,40.98 C25.5,40.86 25.38,40.56 25.5,40.26 C25.62,39.96 25.92,39.84 26.22,39.96 C27.12,40.32 28.02,40.5 28.98,40.56 C29.28,40.56 29.52,40.86 29.52,41.16 C29.46,41.4 29.22,41.64 28.92,41.64 Z" id="Shape" fill="#929292" fill-rule="nonzero"></path>
            <path d="M19.62,34.14 C19.38,34.14 19.14,33.96 19.08,33.72 C18.9,33.12 18.78,32.46 18.66,31.8 C18.6,31.5 18.84,31.2 19.14,31.2 C19.44,31.14 19.74,31.38 19.74,31.68 C19.8,32.28 19.92,32.88 20.1,33.42 C20.16,33.72 20.04,34.02 19.74,34.14 C19.74,34.14 19.68,34.14 19.62,34.14 Z" id="Shape" fill="#929292" fill-rule="nonzero"></path>
            <rect id="Rectangle-path" x="0" y="0" width="60" height="60"></rect>
        </g>
    </g>
</svg>