<?xml version="1.0" encoding="UTF-8"?>
<svg width="60px" height="60px" viewBox="0 0 60 60" version="1.1" xmlns="http://www.w3.org/2000/svg" xmlns:xlink="http://www.w3.org/1999/xlink">
    <!-- Generator: Sketch 49 (51002) - http://www.bohemiancoding.com/sketch -->
    <title>Artboard</title>
    <desc>Created with Sketch.</desc>
    <defs></defs>
    <g id="Artboard" stroke="none" stroke-width="1" fill="none" fill-rule="evenodd">
        <g id="01_50">
            <g id="Group" transform="translate(8.400000, 9.600000)" fill-rule="nonzero">
                <path d="M39.72,0.36 L14.64,0.36 C14.4,0.36 14.04,0.6 14.04,0.84 C14.04,1.08 14.28,1.32 14.64,1.32 L39.72,1.32 C40.68,1.32 41.4,2.04 41.4,3 L41.4,21.24 C41.4,22.2 40.68,22.92 39.72,22.92 L33.36,22.92 L33.36,15 L36,15 C36.24,15 36.6,14.76 36.6,14.4 L36.6,10.44 C36.6,10.2 36.36,9.84 36,9.84 L32.88,9.84 C32.88,9.84 32.88,9.84 32.76,9.84 L10.8,9.84 C10.68,9.84 10.68,9.84 10.68,9.84 L7.56,9.84 C7.32,9.84 7.08,10.08 7.08,10.44 L7.08,14.4 C7.08,14.64 7.32,15 7.56,15 L10.2,15 L10.2,22.8 L3.48,22.8 C2.52,22.8 1.8,22.08 1.8,21.12 L1.8,15.6 L1.8,3.12 C1.8,2.16 2.52,1.44 3.48,1.44 C3.72,1.44 3.96,1.2 3.96,0.96 C3.96,0.72 3.72,0.48 3.48,0.48 C1.92,0.48 0.72,1.8 0.72,3.24 L0.72,15.6 L0.72,21.36 C0.72,22.92 2.04,24.12 3.48,24.12 L10.2,24.12 L10.2,32.64 C10.2,32.64 10.2,32.64 10.2,32.76 L10.2,35.52 L10.2,38.16 C10.2,39.84 11.52,41.16 13.2,41.16 L30.12,41.16 C31.8,41.16 33.12,39.72 33.12,38.16 L33.12,35.52 L33.12,33.36 C33.12,33.36 33.12,33.24 33.12,33.12 L33.12,24.24 L39.6,24.24 C41.16,24.24 42.36,23.04 42.36,21.48 L42.36,3.12 C42.6,1.68 41.28,0.36 39.72,0.36 Z M32.16,11.16 L32.16,32.88 C32.16,32.88 32.16,32.88 32.16,33 L32.16,33.24 C32.04,34.2 31.2,35.04 30.12,35.04 L13.32,35.04 C12.24,35.04 11.4,34.08 11.4,33 L11.4,11.16 L32.16,11.16 Z M11.4,35.4 C12,35.76 12.6,36.12 13.32,36.12 L30.24,36.12 C30.96,36.12 31.68,35.88 32.28,35.4 L32.28,35.64 C32.28,36.72 31.32,37.68 30.24,37.68 L13.32,37.68 C12.24,37.68 11.4,36.72 11.4,35.64 L11.4,35.4 Z M35.4,14.04 L33.24,14.04 L33.24,11.16 L35.4,11.16 L35.4,14.04 Z M8.16,14.04 L8.16,11.16 L10.32,11.16 L10.32,14.04 L8.16,14.04 Z M30.24,40.08 L13.32,40.08 C12.24,40.08 11.4,39.12 11.4,38.04 L11.4,37.8 C12,38.16 12.6,38.52 13.32,38.52 L30.24,38.52 C30.96,38.52 31.68,38.28 32.28,37.8 L32.28,38.04 C32.28,39.24 31.44,40.08 30.24,40.08 Z" id="Shape" fill="#929292"></path>
                <path d="M10.08,1.44 L12.24,1.44 C12.48,1.44 12.84,1.2 12.84,0.96 C12.84,0.72 12.6,0.48 12.24,0.48 L9.96,0.48 C9.72,0.48 9.48,0.72 9.48,0.96 C9.6,1.32 9.84,1.44 10.08,1.44 Z" id="Shape" fill="#929292"></path>
                <g transform="translate(18.000000, 17.565360)" fill="#3067F0" id="Shape">
                    <g>
                        <path d="M1.68,0 L1.08,1.08 L2.64,1.08 C3.6,1.08 4.44,1.44 4.92,2.28 C5.04,2.52 5.16,2.88 5.28,3.24 L1.68,3.24 L1.08,4.32 L5.16,4.32 C5.16,4.44 5.04,4.56 5.04,4.68 C4.56,5.4 3.72,5.88 2.76,5.88 L1.08,5.88 L1.08,6.96 C2.28,8.88 3.6,10.8 4.92,12.72 L6.12,12.72 L2.28,6.96 C4.2,6.96 5.28,6.24 5.88,5.28 C6,5.04 6.12,4.68 6.24,4.32 L7.44,4.32 L8.04,3.24 L6.36,3.24 C6.36,2.64 6.24,2.28 5.88,1.8 C5.76,1.56 5.64,1.44 5.4,1.2 L7.44,1.2 L8.04,0.12 L1.68,0 Z"></path>
                        <path d="M6.24,12.72 L4.92,12.72 C4.68,12.24 4.32,11.76 3.96,11.28 C3,9.84 2.04,8.4 1.08,6.96 L1.08,5.88 L2.88,5.88 C3.84,5.88 4.68,5.52 5.04,4.68 C5.04,4.68 5.16,4.44 5.16,4.44 L1.08,4.44 L1.68,3.24 L5.28,3.24 C5.28,3 5.16,2.64 5.04,2.4 C4.56,1.68 3.72,1.32 2.76,1.32 L0.96,1.32 L1.56,0.12 L8.04,0.12 L7.44,1.32 L5.52,1.32 C5.64,1.56 5.76,1.56 5.88,1.8 C6.12,2.16 6.36,2.76 6.36,3.24 L8.04,3.24 L7.44,4.44 L6.24,4.44 C6.24,4.68 6,5.04 5.88,5.4 C5.16,6.48 4.08,7.08 2.4,7.08 L6.24,12.72 Z M4.92,12.6 L6,12.6 L2.16,6.84 L2.28,6.84 C3.96,6.84 5.16,6.36 5.76,5.16 C5.88,4.92 6,4.56 6.12,4.2 L7.32,4.2 L7.8,3.24 L6.24,3.24 L6.24,3.12 C6.24,2.64 6.12,2.16 5.76,1.68 C5.64,1.44 5.52,1.32 5.28,1.08 L5.16,0.96 L7.44,0.96 L7.92,2.27373675e-13 L1.8,2.27373675e-13 L1.32,0.96 L2.76,0.96 C3.72,0.96 4.56,1.32 5.16,2.16 C5.28,2.4 5.4,2.88 5.52,3.12 L5.52,3.24 L1.8,3.24 L1.32,4.2 L5.4,4.2 L5.4,4.32 C5.4,4.56 5.28,4.56 5.28,4.68 C4.8,5.52 3.96,5.88 2.88,5.88 L1.2,5.88 L1.2,6.84 C2.16,8.28 3.12,9.72 4.08,11.16 C4.32,11.64 4.68,12.12 4.92,12.6 Z"></path>
                    </g>
                </g>
            </g>
            <rect id="Rectangle-path" x="0" y="0" width="60" height="60"></rect>
        </g>
    </g>
</svg>