<svg xmlns="http://www.w3.org/2000/svg" viewBox="0 0 306.05 218.87"><defs><style>.cls-1{isolation:isolate;}.cls-2{fill:#20202d;}.cls-3{mix-blend-mode:color-burn;}.cls-4{fill:#fff;}.cls-5{fill:#fdfdfd;}.cls-6{fill:#fafafa;}.cls-7{fill:#f8f8f8;}.cls-8{fill:#f5f5f5;}.cls-9{fill:#f3f3f3;}.cls-10{fill:#f0f0f0;}.cls-11{fill:#eee;}.cls-12{fill:#ebebeb;}.cls-13{fill:#e9e9e9;}.cls-14{fill:#e6e6e6;}.cls-15{fill:#e4e4e4;}.cls-16{fill:#e2e2e2;}.cls-17{fill:#dfdfdf;}.cls-18{fill:#ddd;}.cls-19{fill:#dadada;}.cls-20{fill:#d8d8d8;}.cls-21{fill:#d5d5d5;}.cls-22{fill:#d3d3d3;}.cls-23{fill:#d0d0d0;}.cls-24{fill:#cecece;}.cls-25{fill:#ccc;}.cls-26{fill:#c9c9c9;}.cls-27{fill:#c7c7c7;}.cls-28{fill:#c4c4c4;}.cls-29{fill:#c2c2c2;}.cls-30{fill:#bfbfbf;}.cls-31{fill:#bdbdbd;}.cls-32{fill:#bababa;}.cls-33{fill:#b8b8b8;}.cls-34{fill:#b5b5b5;}.cls-35{fill:#b3b3b3;}.cls-36{fill:#f2ae26;}.cls-37{fill:#19150f;}</style></defs><g class="cls-1"><g id="Layer_2" data-name="Layer 2"><g id="Layer_1-2" data-name="Layer 1"><polygon class="cls-2" points="230.05 145.12 126.11 161.41 22.17 177.7 11.09 165.44 0 153.17 12.8 131.27 25.6 109.38 135.41 91.77 245.22 74.17 237.63 109.65 230.05 145.12"/><g class="cls-3"><polygon class="cls-4" points="87.28 65.4 169.75 52.47 252.22 39.55 261.01 49.28 269.81 59.01 259.65 76.39 249.5 93.76 162.37 107.73 75.24 121.7 81.26 93.55 87.28 65.4"/><polygon class="cls-5" points="88.06 64.62 170.53 51.69 253 38.77 261.79 48.5 270.59 58.23 260.43 75.61 250.28 92.98 163.15 106.95 76.02 120.92 82.04 92.77 88.06 64.62"/><polygon class="cls-6" points="88.84 63.84 171.31 50.91 253.78 37.99 262.57 47.72 271.37 57.45 261.21 74.83 251.06 92.2 163.93 106.17 76.8 120.14 82.82 91.99 88.84 63.84"/><polygon class="cls-7" points="89.62 63.06 172.09 50.13 254.56 37.21 263.35 46.94 272.15 56.67 261.99 74.05 251.84 91.42 164.71 105.39 77.58 119.36 83.6 91.21 89.62 63.06"/><polygon class="cls-8" points="90.4 62.28 172.87 49.35 255.34 36.43 264.13 46.16 272.93 55.89 262.77 73.27 252.62 90.64 165.49 104.61 78.36 118.58 84.38 90.43 90.4 62.28"/><polygon class="cls-9" points="91.18 61.5 173.65 48.58 256.12 35.65 264.91 45.38 273.71 55.12 263.55 72.49 253.4 89.86 166.27 103.83 79.14 117.8 85.16 89.65 91.18 61.5"/><polygon class="cls-10" points="91.96 60.72 174.43 47.8 256.9 34.87 265.69 44.6 274.49 54.34 264.33 71.71 254.18 89.08 167.05 103.05 79.92 117.02 85.94 88.87 91.96 60.72"/><polygon class="cls-11" points="92.74 59.94 175.21 47.02 257.68 34.09 266.47 43.82 275.27 53.55 265.11 70.93 254.96 88.3 167.83 102.27 80.7 116.24 86.72 88.09 92.74 59.94"/><polygon class="cls-12" points="93.52 59.16 175.99 46.24 258.46 33.31 267.25 43.04 276.05 52.77 265.89 70.15 255.74 87.52 168.61 101.49 81.48 115.46 87.5 87.31 93.52 59.16"/><polygon class="cls-13" points="94.3 58.38 176.77 45.46 259.24 32.53 268.03 42.26 276.83 52 266.67 69.37 256.52 86.75 169.39 100.71 82.26 114.68 88.28 86.53 94.3 58.38"/><polygon class="cls-14" points="95.08 57.6 177.55 44.68 260.01 31.75 268.81 41.48 277.61 51.22 267.45 68.59 257.3 85.97 170.17 99.93 83.04 113.9 89.06 85.75 95.08 57.6"/><polygon class="cls-15" points="95.86 56.82 178.33 43.9 260.8 30.97 269.59 40.7 278.39 50.44 268.23 67.81 258.08 85.19 170.95 99.15 83.82 113.12 89.84 84.97 95.86 56.82"/><polygon class="cls-16" points="96.64 56.04 179.11 43.12 261.57 30.19 270.37 39.92 279.17 49.66 269.01 67.03 258.86 84.41 171.73 98.37 84.6 112.34 90.62 84.19 96.64 56.04"/><polygon class="cls-17" points="97.42 55.26 179.89 42.34 262.35 29.41 271.15 39.15 279.94 48.88 269.79 66.25 259.64 83.63 172.51 97.59 85.38 111.56 91.4 83.41 97.42 55.26"/><polygon class="cls-18" points="98.2 54.48 180.67 41.56 263.13 28.63 271.93 38.37 280.73 48.1 270.57 65.47 260.42 82.85 173.29 96.81 86.16 110.78 92.18 82.63 98.2 54.48"/><polygon class="cls-19" points="98.98 53.7 181.45 40.78 263.91 27.85 272.71 37.59 281.5 47.32 271.35 64.69 261.2 82.07 174.07 96.03 86.94 110 92.96 81.85 98.98 53.7"/><polygon class="cls-20" points="99.76 52.92 182.23 40 264.69 27.07 273.49 36.8 282.29 46.54 272.13 63.91 261.98 81.29 174.85 95.25 87.72 109.22 93.74 81.07 99.76 52.92"/><polygon class="cls-21" points="100.54 52.14 183.01 39.22 265.47 26.29 274.27 36.02 283.06 45.76 272.91 63.13 262.75 80.51 175.63 94.47 88.5 108.44 94.52 80.29 100.54 52.14"/><polygon class="cls-22" points="101.32 51.36 183.79 38.44 266.25 25.51 275.05 35.25 283.84 44.98 273.69 62.35 263.54 79.73 176.41 93.69 89.28 107.66 95.3 79.51 101.32 51.36"/><polygon class="cls-23" points="102.1 50.58 184.57 37.66 267.03 24.73 275.83 34.47 284.62 44.2 274.47 61.57 264.31 78.95 177.19 92.91 90.06 106.88 96.08 78.73 102.1 50.58"/><polygon class="cls-24" points="102.88 49.8 185.34 36.88 267.81 23.95 276.61 33.69 285.4 43.42 275.25 60.79 265.1 78.17 177.97 92.14 90.84 106.1 96.86 77.95 102.88 49.8"/><polygon class="cls-25" points="103.66 49.02 186.13 36.1 268.59 23.17 277.39 32.91 286.18 42.64 276.03 60.01 265.87 77.39 178.75 91.36 91.62 105.32 97.64 77.17 103.66 49.02"/><polygon class="cls-26" points="104.44 48.24 186.91 35.32 269.37 22.39 278.17 32.13 286.96 41.86 276.81 59.23 266.65 76.61 179.53 90.58 92.4 104.54 98.42 76.39 104.44 48.24"/><polygon class="cls-27" points="105.22 47.46 187.69 34.54 270.15 21.61 278.95 31.35 287.74 41.08 277.59 58.45 267.43 75.83 180.31 89.8 93.18 103.76 99.2 75.61 105.22 47.46"/><polygon class="cls-28" points="106 46.68 188.46 33.76 270.93 20.84 279.73 30.57 288.52 40.3 278.37 57.67 268.21 75.05 181.09 89.02 93.96 102.98 99.98 74.83 106 46.68"/><polygon class="cls-29" points="106.78 45.9 189.24 32.98 271.71 20.05 280.51 29.79 289.3 39.52 279.15 56.89 268.99 74.27 181.87 88.24 94.73 102.2 100.76 74.05 106.78 45.9"/><polygon class="cls-30" points="107.56 45.12 190.02 32.2 272.49 19.28 281.29 29.01 290.08 38.74 279.93 56.11 269.77 73.49 182.64 87.46 95.52 101.42 101.54 73.27 107.56 45.12"/><polygon class="cls-31" points="108.34 44.34 190.8 31.42 273.27 18.5 282.07 28.23 290.86 37.96 280.71 55.33 270.55 72.71 183.42 86.68 96.3 100.64 102.31 72.49 108.34 44.34"/><polygon class="cls-32" points="109.12 43.56 191.58 30.64 274.05 17.72 282.85 27.45 291.64 37.18 281.49 54.55 271.33 71.93 184.2 85.9 97.08 99.86 103.09 71.71 109.12 43.56"/><polygon class="cls-33" points="109.9 42.78 192.36 29.86 274.83 16.94 283.63 26.67 292.42 36.4 282.27 53.77 272.11 71.15 184.98 85.12 97.86 99.08 103.88 70.93 109.9 42.78"/><polygon class="cls-34" points="110.67 42 193.14 29.08 275.61 16.16 284.41 25.89 293.2 35.62 283.05 52.99 272.89 70.37 185.76 84.34 98.63 98.3 104.66 70.15 110.67 42"/><polygon class="cls-35" points="111.45 41.22 193.92 28.3 276.39 15.38 285.19 25.11 293.98 34.84 283.83 52.22 273.67 69.59 186.54 83.56 99.41 97.53 105.44 69.37 111.45 41.22"/></g><polygon class="cls-36" points="111.66 41.02 194.13 28.09 276.6 15.17 285.39 24.9 294.19 34.63 284.03 52.01 273.88 69.38 186.75 83.35 99.62 97.32 105.64 69.17 111.66 41.02"/><path class="cls-2" d="M132.16,82.62a12.1,12.1,0,0,1-3.8.11,5.12,5.12,0,0,1-2.5-1,4.28,4.28,0,0,1-1.32-2.06,8.5,8.5,0,0,1-.37-2.87,21.68,21.68,0,0,1,.44-3.59l2.29-11.45a26.34,26.34,0,0,1,1-3.85,17,17,0,0,1,1.58-3.23A11.24,11.24,0,0,1,131.77,52a12.65,12.65,0,0,1,3.07-1.88,16.17,16.17,0,0,1,4-1.16,11.68,11.68,0,0,1,4.24-.06,3.89,3.89,0,0,1,2.49,1.45,5.26,5.26,0,0,1,.94,2.71,14.2,14.2,0,0,1-.31,3.88l-.57,2.81-6,1,.55-2.8a12.67,12.67,0,0,0,.39-3.26c-.13-1.06-.89-1.51-2.26-1.36l-.33.06a5.69,5.69,0,0,0-1.41.4,3.36,3.36,0,0,0-1.07.72,6.37,6.37,0,0,0-.77.92,5.62,5.62,0,0,0-.56,1.2c-.17.48-.31.92-.41,1.32s-.21.9-.33,1.51l-2.77,13.91c-.38,1.93-.41,3.27-.07,4s1.16,1,2.45.79a5.26,5.26,0,0,0,1.2-.34,4,4,0,0,0,.92-.52,3,3,0,0,0,.71-.74,7.88,7.88,0,0,0,.52-.86,5.92,5.92,0,0,0,.39-1c.13-.44.22-.81.29-1.12s.15-.72.26-1.25l.58-2.93,6-1-.54,2.7a21.6,21.6,0,0,1-.92,3.35A15.29,15.29,0,0,1,141,77.34a10.91,10.91,0,0,1-2.11,2.41A11.17,11.17,0,0,1,136,81.52,15.76,15.76,0,0,1,132.16,82.62Z"/><path class="cls-2" d="M155,78.87c-3.52.58-5.86.07-7-1.51s-1.4-4.15-.69-7.69l2.42-12.13a21.12,21.12,0,0,1,1.42-4.62,14,14,0,0,1,2.32-3.61A11.37,11.37,0,0,1,157,46.7a16.62,16.62,0,0,1,4.76-1.46q5.27-.87,7,1.47t.71,7.59l-2.41,12.13a22,22,0,0,1-1.43,4.62,14.4,14.4,0,0,1-2.35,3.66,11.58,11.58,0,0,1-3.5,2.67A16.14,16.14,0,0,1,155,78.87Zm-.62-4.44a3.8,3.8,0,0,0,1.51,0,5.37,5.37,0,0,0,1.6-.51,4.44,4.44,0,0,0,1.15-.84,4.89,4.89,0,0,0,.82-1.19,9.5,9.5,0,0,0,.56-1.4c.13-.45.26-1,.39-1.61l3-14.93a12.68,12.68,0,0,0,.27-2,3.8,3.8,0,0,0-.19-1.41,1.34,1.34,0,0,0-.87-.88,3.77,3.77,0,0,0-1.77,0,5.64,5.64,0,0,0-1.92.65,3.8,3.8,0,0,0-1.29,1.23,7.14,7.14,0,0,0-.77,1.57,15.39,15.39,0,0,0-.52,2l-3,14.93a14.07,14.07,0,0,0-.25,1.59,6.27,6.27,0,0,0,0,1.3,2,2,0,0,0,.37,1A1.59,1.59,0,0,0,154.41,74.43Z"/><path class="cls-2" d="M169.48,76.12l7.1-32.95,6.4-1.05.36,22.27L193,40.47l6.25-1-6,32.77-4.7.77,4.09-22.57-9.44,23.45-3.65.59-.48-21.89-4.89,22.78Z"/><path class="cls-2" d="M198.57,71.35l6.54-32.86,6.15-1-6.54,32.86Z"/><path class="cls-2" d="M210,69.47l6.55-32.86,4.29-.7,4.68,17.23,3.7-18.61,5.16-.84-6.54,32.86-4.09.67L219.16,49l-3.89,19.57Z"/><path class="cls-2" d="M241.42,64.74q-4.84.8-6.41-1.77t-.44-8.13l2.13-10.7a25.74,25.74,0,0,1,1.44-5,15.32,15.32,0,0,1,2.27-3.86,10.81,10.81,0,0,1,3.48-2.81A16,16,0,0,1,248.75,31q5.07-.83,6.81,1.2c1.15,1.35,1.41,3.64.76,6.88l-.31,1.6-6,1,.34-1.7c.14-.73.24-1.32.3-1.78a6.11,6.11,0,0,0,0-1.35,1.61,1.61,0,0,0-.35-1,1.7,1.7,0,0,0-.89-.45,4.1,4.1,0,0,0-1.52,0,5.32,5.32,0,0,0-1.28.37,5.48,5.48,0,0,0-1,.57,3.15,3.15,0,0,0-.77.81,5.76,5.76,0,0,0-.57.94,7.47,7.47,0,0,0-.43,1.14c-.14.45-.25.86-.33,1.2s-.18.79-.28,1.33L240.65,55a8.42,8.42,0,0,0-.11,4.23q.5,1.24,2.64.9a5.23,5.23,0,0,0,1.95-.72A4.58,4.58,0,0,0,246.55,58a8.68,8.68,0,0,0,1-2,18.72,18.72,0,0,0,.69-2.59l.54-2.7-3.7.61.77-3.87,9.31-1.53-3.32,16.69-4.05.67L248,60A9,9,0,0,1,241.42,64.74Z"/><path class="cls-37" d="M111.47,185.06a5.45,5.45,0,0,1-1.68.06,2.23,2.23,0,0,1-1.08-.43,1.73,1.73,0,0,1-.54-.92,3.87,3.87,0,0,1-.12-1.3,11.06,11.06,0,0,1,.22-1.69l1.89-9.46,2.62-.43-1.94,9.73c-.06.33-.11.61-.14.85a4.25,4.25,0,0,0,0,.72,1.23,1.23,0,0,0,.13.57.74.74,0,0,0,.38.31,1.13,1.13,0,0,0,.67,0,1.83,1.83,0,0,0,.74-.27,1.79,1.79,0,0,0,.52-.46,2.87,2.87,0,0,0,.38-.66,5.61,5.61,0,0,0,.26-.75c.06-.23.12-.52.19-.86l1.94-9.73,2.62-.43-1.88,9.46a13.9,13.9,0,0,1-.45,1.73,8.11,8.11,0,0,1-.67,1.43,5,5,0,0,1-1,1.16,5.38,5.38,0,0,1-1.32.82A7.41,7.41,0,0,1,111.47,185.06Z"/><path class="cls-37" d="M117.77,183.86l2.84-14.26,1.86-.3,2,7.47,1.6-8.07,2.24-.36-2.84,14.25-1.77.29-2-7.88-1.69,8.48Z"/><path class="cls-37" d="M127.73,182.22,130.56,168l3.46-.57a8.28,8.28,0,0,1,2.2-.11,2.1,2.1,0,0,1,1.28.58,2,2,0,0,1,.5,1.25,6.92,6.92,0,0,1-.17,2l-1,5.14a10.15,10.15,0,0,1-.64,2.11,5.64,5.64,0,0,1-1.06,1.57,5,5,0,0,1-1.59,1.1,8.65,8.65,0,0,1-2.23.64Zm3.06-2.26.77-.13a3.44,3.44,0,0,0,.72-.18,3.58,3.58,0,0,0,.55-.25,1.39,1.39,0,0,0,.4-.37,3,3,0,0,0,.29-.43,3.09,3.09,0,0,0,.22-.56c.07-.25.13-.46.17-.63s.09-.43.16-.77l1-5.21c.06-.33.11-.6.14-.81a4.17,4.17,0,0,0,0-.61.71.71,0,0,0-.38-.71,1,1,0,0,0-.5-.11,4.75,4.75,0,0,0-.77.07l-.74.13Z"/><path class="cls-37" d="M137.87,180.56l2.84-14.25,6.21-1-.36,1.83-3.51.57-.82,4.1,2.78-.46-.37,1.83-2.77.46-.94,4.7,3.55-.58-.35,1.79Z"/><path class="cls-37" d="M145.69,179.28,148.52,165l3.41-.56a9.19,9.19,0,0,1,2-.15,2.79,2.79,0,0,1,1.34.38,1.55,1.55,0,0,1,.7,1,4.25,4.25,0,0,1-.05,1.76,6.35,6.35,0,0,1-.86,2.26,4.13,4.13,0,0,1-1.62,1.47l.66,6.68-2.71.45-.47-6.22-1.2.2-1.3,6.5Zm4.33-8.61.65-.11a3.34,3.34,0,0,0,1.8-.77,3.27,3.27,0,0,0,.84-1.76,2,2,0,0,0-.11-1.56c-.23-.28-.73-.36-1.51-.23l-.82.13Z"/><path class="cls-37" d="M164.28,176.39a5.14,5.14,0,0,1-1.64.05,2.22,2.22,0,0,1-1.09-.45,1.91,1.91,0,0,1-.57-.89,3.8,3.8,0,0,1-.16-1.24,8.68,8.68,0,0,1,.19-1.56l1-5a11.18,11.18,0,0,1,.45-1.67,7.28,7.28,0,0,1,.69-1.4,5.13,5.13,0,0,1,1-1.14,5.82,5.82,0,0,1,1.34-.81,6.7,6.7,0,0,1,1.74-.5,5.21,5.21,0,0,1,1.84,0,1.68,1.68,0,0,1,1.08.63,2.21,2.21,0,0,1,.4,1.17,6.16,6.16,0,0,1-.13,1.69l-.24,1.22-2.61.42.24-1.21a5.67,5.67,0,0,0,.17-1.42c-.06-.45-.39-.65-1-.58l-.14,0a2.66,2.66,0,0,0-.62.18,1.49,1.49,0,0,0-.46.31,2.41,2.41,0,0,0-.33.4,2.81,2.81,0,0,0-.25.52c-.07.21-.13.4-.17.57s-.09.39-.15.66l-1.2,6a3.31,3.31,0,0,0,0,1.73c.15.32.5.44,1.07.35a2.35,2.35,0,0,0,.51-.15,2.11,2.11,0,0,0,.4-.22,1.4,1.4,0,0,0,.31-.33,4.23,4.23,0,0,0,.23-.37,2.63,2.63,0,0,0,.16-.46c.06-.19.1-.35.13-.48s.07-.31.11-.54l.26-1.28,2.6-.42-.23,1.17a10.45,10.45,0,0,1-.4,1.45,6.23,6.23,0,0,1-.64,1.26,5.13,5.13,0,0,1-.91,1.05,5.36,5.36,0,0,1-1.27.77A7,7,0,0,1,164.28,176.39Z"/><path class="cls-37" d="M174.2,174.77c-1.53.25-2.54,0-3-.66a4.3,4.3,0,0,1-.29-3.34l1-5.26a9.42,9.42,0,0,1,.61-2,6.06,6.06,0,0,1,1-1.56,5.1,5.1,0,0,1,1.51-1.14,7.62,7.62,0,0,1,2.07-.63c1.52-.25,2.54,0,3,.64a4.2,4.2,0,0,1,.31,3.29l-1.05,5.26a9.6,9.6,0,0,1-.62,2,6.55,6.55,0,0,1-1,1.59,4.91,4.91,0,0,1-1.52,1.16A7.12,7.12,0,0,1,174.2,174.77Zm-.27-1.93a1.81,1.81,0,0,0,.66,0,2.33,2.33,0,0,0,.69-.22,2,2,0,0,0,.5-.37,2.21,2.21,0,0,0,.36-.51,4.27,4.27,0,0,0,.24-.61c.06-.19.11-.43.17-.7l1.29-6.47a7.34,7.34,0,0,0,.11-.85,1.56,1.56,0,0,0-.08-.62.56.56,0,0,0-.38-.37,1.45,1.45,0,0,0-.76,0,2.2,2.2,0,0,0-.83.28,1.61,1.61,0,0,0-.57.53,3.27,3.27,0,0,0-.33.68,7.62,7.62,0,0,0-.23.87l-1.28,6.47a6,6,0,0,0-.11.69,2.17,2.17,0,0,0,0,.57.76.76,0,0,0,.16.43A.68.68,0,0,0,173.93,172.84Z"/><path class="cls-37" d="M180.5,173.57l2.83-14.26,1.87-.3,2,7.47,1.61-8.07,2.24-.36-2.84,14.25-1.77.29-2-7.88-1.69,8.48Z"/><path class="cls-37" d="M194.16,171.49c-2.61.43-3.7-.79-3.25-3.67l2.45-.86c-.32,1.87,0,2.73,1.12,2.55a1.69,1.69,0,0,0,1-.51,2.12,2.12,0,0,0,.49-1,2.17,2.17,0,0,0,0-1,1.62,1.62,0,0,0-.36-.72,5.48,5.48,0,0,0-.68-.65l-1.63-1.3a3.09,3.09,0,0,1-1-1.29,3.52,3.52,0,0,1,0-1.88,4.93,4.93,0,0,1,1.53-2.74,5.83,5.83,0,0,1,3-1.4,4.2,4.2,0,0,1,1.4,0,2.09,2.09,0,0,1,.93.37,1.59,1.59,0,0,1,.51.74,3.11,3.11,0,0,1,.2,1,7.14,7.14,0,0,1-.05,1.19l-2.4.82c0-.29.07-.53.09-.74a4.26,4.26,0,0,0,0-.62,1.18,1.18,0,0,0-.15-.49.64.64,0,0,0-.36-.25,1.07,1.07,0,0,0-.59,0,2,2,0,0,0-1,.53,2,2,0,0,0-.5,1,1.71,1.71,0,0,0,.06,1.08,2.37,2.37,0,0,0,.69.81l1.61,1.3a5.45,5.45,0,0,1,.68.68,3.58,3.58,0,0,1,.51.79,2.74,2.74,0,0,1,.27,1,4.62,4.62,0,0,1-.09,1.26,4.86,4.86,0,0,1-1.53,2.7A5.37,5.37,0,0,1,194.16,171.49Z"/><path class="cls-37" d="M200.94,170.21l2.46-12.33-2.49.41.39-1.92,7.6-1.25-.38,1.92-2.41.39-2.46,12.34Z"/><path class="cls-37" d="M207.24,169.18l2.84-14.25,3.4-.56a9.24,9.24,0,0,1,2-.15,3,3,0,0,1,1.34.38,1.58,1.58,0,0,1,.7,1,4.28,4.28,0,0,1-.06,1.76,6.54,6.54,0,0,1-.85,2.26,4.12,4.12,0,0,1-1.62,1.47l.66,6.68-2.71.45-.48-6.22-1.2.2-1.3,6.51Zm4.33-8.61.65-.11a3.33,3.33,0,0,0,1.81-.77,3.23,3.23,0,0,0,.84-1.76,2,2,0,0,0-.12-1.56c-.22-.28-.73-.36-1.51-.23l-.81.13Z"/><path class="cls-37" d="M221.44,167a5.77,5.77,0,0,1-1.68.06,2.14,2.14,0,0,1-1.07-.44,1.74,1.74,0,0,1-.55-.91,4.46,4.46,0,0,1-.12-1.3,11.21,11.21,0,0,1,.23-1.69l1.88-9.46,2.63-.43-1.94,9.73a7.08,7.08,0,0,0-.14.85,5.53,5.53,0,0,0,0,.71,1.23,1.23,0,0,0,.14.58.7.7,0,0,0,.38.31,1.11,1.11,0,0,0,.67,0,1.78,1.78,0,0,0,.73-.27,1.84,1.84,0,0,0,.53-.46,2.87,2.87,0,0,0,.37-.66,5.61,5.61,0,0,0,.26-.75c.06-.24.13-.52.2-.86l1.93-9.73,2.63-.43-1.89,9.46a13.9,13.9,0,0,1-.45,1.73,6.9,6.9,0,0,1-.67,1.43,5,5,0,0,1-.95,1.16,5,5,0,0,1-1.32.82A7.27,7.27,0,0,1,221.44,167Z"/><path class="cls-37" d="M231.69,165.33a5.14,5.14,0,0,1-1.64,0,2.13,2.13,0,0,1-1.09-.45,1.91,1.91,0,0,1-.57-.89,3.77,3.77,0,0,1-.16-1.24,8.68,8.68,0,0,1,.19-1.56l1-5a10.72,10.72,0,0,1,.45-1.66,7.37,7.37,0,0,1,.69-1.41,4.67,4.67,0,0,1,1-1.13,5.26,5.26,0,0,1,1.33-.82,6.7,6.7,0,0,1,1.74-.5,5.21,5.21,0,0,1,1.84,0,1.68,1.68,0,0,1,1.08.63,2.31,2.31,0,0,1,.41,1.18,6.6,6.6,0,0,1-.14,1.68l-.24,1.22-2.61.42.24-1.21a5.65,5.65,0,0,0,.17-1.41c-.06-.46-.39-.66-1-.59l-.14,0a2.66,2.66,0,0,0-.62.18,1.49,1.49,0,0,0-.46.31,2.41,2.41,0,0,0-.33.4,2.81,2.81,0,0,0-.25.52c-.07.21-.13.4-.17.57l-.15.66-1.2,6a3.35,3.35,0,0,0,0,1.74c.15.32.5.43,1.07.34a2.1,2.1,0,0,0,.52-.15A2.36,2.36,0,0,0,233,163a1.23,1.23,0,0,0,.31-.33,4.23,4.23,0,0,0,.23-.37,2.8,2.8,0,0,0,.16-.45c.06-.2.1-.36.13-.49s.07-.31.11-.54l.26-1.27,2.6-.43-.23,1.17a10.08,10.08,0,0,1-.4,1.45,6.23,6.23,0,0,1-.64,1.26,4.62,4.62,0,0,1-.91,1.05,5.16,5.16,0,0,1-1.26.77A7.27,7.27,0,0,1,231.69,165.33Z"/><path class="cls-37" d="M239.06,164l2.46-12.33L239,152l.38-1.91,7.6-1.25-.38,1.92-2.41.39-2.46,12.34Z"/><path class="cls-37" d="M245.44,162.91l2.83-14.25,2.67-.44-2.84,14.26Z"/><path class="cls-37" d="M254.39,161.61c-1.53.25-2.54,0-3-.65a4.34,4.34,0,0,1-.3-3.34l1.05-5.26a9.51,9.51,0,0,1,.62-2,5.81,5.81,0,0,1,1-1.56,4.79,4.79,0,0,1,1.51-1.13,7.12,7.12,0,0,1,2.06-.64c1.53-.25,2.54,0,3,.64a4.19,4.19,0,0,1,.31,3.3l-1,5.26a9.21,9.21,0,0,1-.61,2,6.55,6.55,0,0,1-1,1.59,5.2,5.2,0,0,1-1.52,1.16A7.32,7.32,0,0,1,254.39,161.61Zm-.27-1.92a1.76,1.76,0,0,0,.65,0,2.3,2.3,0,0,0,.7-.23,1.88,1.88,0,0,0,.5-.36,2.05,2.05,0,0,0,.35-.52,3.75,3.75,0,0,0,.24-.6,6.57,6.57,0,0,0,.17-.7l1.29-6.47a5.8,5.8,0,0,0,.12-.86,1.73,1.73,0,0,0-.08-.61.6.6,0,0,0-.38-.38,1.6,1.6,0,0,0-.77,0,2.46,2.46,0,0,0-.83.28,1.7,1.7,0,0,0-.56.54,3,3,0,0,0-.33.68,5.36,5.36,0,0,0-.23.87l-1.29,6.47a5.72,5.72,0,0,0-.1.69,2.62,2.62,0,0,0,0,.56.88.88,0,0,0,.17.44A.74.74,0,0,0,254.12,159.69Z"/><path class="cls-37" d="M260.68,160.41l2.84-14.25,1.86-.31,2,7.48,1.61-8.07,2.24-.37-2.84,14.25-1.77.3-2-7.89L263,160Z"/><path class="cls-4" d="M71.6,157.58q-13,2.13-10.79-12.19l8.13-2.85q-1.57,9.33,3.71,8.47a5.46,5.46,0,0,0,3.28-1.7,6.92,6.92,0,0,0,1.64-3.39,7.66,7.66,0,0,0,0-3.48,6.06,6.06,0,0,0-1.19-2.4,20.12,20.12,0,0,0-2.28-2.12l-5.4-4.33a10.23,10.23,0,0,1-3.26-4.28,11.63,11.63,0,0,1-.11-6.23A16.17,16.17,0,0,1,70.39,114a19.24,19.24,0,0,1,9.87-4.63,14,14,0,0,1,4.65-.14A6.69,6.69,0,0,1,88,110.43a5.58,5.58,0,0,1,1.7,2.44,11,11,0,0,1,.65,3.27,22.94,22.94,0,0,1-.18,3.94l-8,2.71c.15-.94.25-1.76.3-2.45a10.9,10.9,0,0,0,0-2.06,3.69,3.69,0,0,0-.49-1.62,2.17,2.17,0,0,0-1.19-.84,3.75,3.75,0,0,0-2,0,6.21,6.21,0,0,0-5,5,5.7,5.7,0,0,0,.19,3.59,8.39,8.39,0,0,0,2.3,2.67l5.35,4.31a19.88,19.88,0,0,1,2.25,2.25,13.49,13.49,0,0,1,1.68,2.63,9.43,9.43,0,0,1,.91,3.43,15,15,0,0,1-.29,4.19,16.46,16.46,0,0,1-5.07,8.94A18,18,0,0,1,71.6,157.58Z"/><path class="cls-4" d="M102.58,152.5q-7.6,1.25-10.11-2.18t-1-11.07L95,121.8a31.2,31.2,0,0,1,2-6.65,20.09,20.09,0,0,1,3.35-5.19,16.42,16.42,0,0,1,5-3.76,24.27,24.27,0,0,1,6.85-2.1q7.57-1.25,10.11,2.12t1,10.92l-3.48,17.46a30.82,30.82,0,0,1-2,6.64,21.09,21.09,0,0,1-3.38,5.27,16.52,16.52,0,0,1-5,3.84A23.47,23.47,0,0,1,102.58,152.5Zm-.89-6.4a5.38,5.38,0,0,0,2.17,0,7.77,7.77,0,0,0,2.3-.74,6.08,6.08,0,0,0,2.83-2.92,12.81,12.81,0,0,0,.81-2c.19-.65.38-1.43.56-2.32l4.28-21.48a21.63,21.63,0,0,0,.39-2.82,5.61,5.61,0,0,0-.27-2,1.93,1.93,0,0,0-1.26-1.26,5.37,5.37,0,0,0-2.54-.06,8.09,8.09,0,0,0-2.76.93,5.44,5.44,0,0,0-1.86,1.77,10.59,10.59,0,0,0-1.11,2.27,21.1,21.1,0,0,0-.75,2.88l-4.28,21.47a20,20,0,0,0-.35,2.3,8.35,8.35,0,0,0,0,1.87,2.73,2.73,0,0,0,.53,1.43A2.28,2.28,0,0,0,101.69,146.1Z"/><path class="cls-4" d="M136.74,146.89q-7.61,1.25-10.11-2.17c-1.67-2.29-2-6-1-11.07l3.47-17.45a30.9,30.9,0,0,1,2-6.66,19.91,19.91,0,0,1,3.34-5.18,16.42,16.42,0,0,1,5-3.76,24,24,0,0,1,6.85-2.1q7.58-1.25,10.11,2.12t1,10.92L154,129a30.65,30.65,0,0,1-2,6.64,20.73,20.73,0,0,1-3.38,5.27,16.71,16.71,0,0,1-5,3.85A23.17,23.17,0,0,1,136.74,146.89Zm-.89-6.39a5.41,5.41,0,0,0,2.17,0,7.76,7.76,0,0,0,2.3-.73,6.08,6.08,0,0,0,2.83-2.92,12.81,12.81,0,0,0,.81-2c.2-.66.38-1.43.56-2.33L148.8,111a18.64,18.64,0,0,0,.39-2.82,5.58,5.58,0,0,0-.27-2,1.93,1.93,0,0,0-1.26-1.26,5.35,5.35,0,0,0-2.54-.07,8.09,8.09,0,0,0-2.76.94,5.44,5.44,0,0,0-1.86,1.77,10.52,10.52,0,0,0-1.11,2.26,22.67,22.67,0,0,0-.75,2.88l-4.28,21.48a22.38,22.38,0,0,0-.35,2.29,8.33,8.33,0,0,0,0,1.87,2.79,2.79,0,0,0,.53,1.43A2.29,2.29,0,0,0,135.85,140.5Z"/><path class="cls-4" d="M157.62,142.91,167,95.63l6.18-1,6.72,24.8,5.34-26.78,7.42-1.22-9.41,47.28-5.88,1-6.58-26.15-5.6,28.15Z"/><path class="cls-36" d="M141.92,27a.5.5,0,0,1-.5-.42.51.51,0,0,1,.42-.57L305.47,0a.51.51,0,0,1,.58.41.51.51,0,0,1-.42.57L142,27Z"/><path class="cls-36" d="M39.64,33.85a.5.5,0,0,1-.07-1l163.63-26a.5.5,0,1,1,.16,1l-163.64,26Z"/><path class="cls-2" d="M160.92,185.3a.5.5,0,0,1-.07-1l116.52-18.59a.5.5,0,0,1,.58.41.52.52,0,0,1-.42.58L161,185.29Z"/><path class="cls-2" d="M19.6,218.87a.5.5,0,0,1-.08-1l163.64-26a.51.51,0,0,1,.57.42.5.5,0,0,1-.41.57l-163.64,26Z"/></g></g></g></svg>